<?xml version="1.0" encoding="UTF-8"?>
<svg width="15px" height="45px" viewBox="0 0 15 45" version="1.1" xmlns="http://www.w3.org/2000/svg" xmlns:xlink="http://www.w3.org/1999/xlink">
    <!-- Generator: Sketch 52.5 (67469) - http://www.bohemiancoding.com/sketch -->
    <title>Button:ScrollDown</title>
    <desc>Created with Sketch.</desc>
    <g id="Welcome" stroke="none" stroke-width="1" fill="none" fill-rule="evenodd">
        <g id="Tablet-Portrait" transform="translate(-376.000000, -444.000000)" fill="#DDDBDB">
            <g id="Button:ScrollDown" transform="translate(376.000000, 444.000000)">
                <circle id="Oval" cx="7.5" cy="6.5" r="1.5"></circle>
                <path d="M7.5,0 C3.358,0 0,3.41956364 0,7.63738182 L0,20.3626182 C0,24.5804364 3.358,28 7.5,28 C11.642,28 15,24.5804364 15,20.3626182 L15,7.63738182 C15,3.41956364 11.642,0 7.5,0 Z M14,20.3626182 C14,24.0122909 11.084,26.9818182 7.5,26.9818182 C3.916,26.9818182 1,24.0122909 1,20.3626182 L1,7.63738182 C1,3.98770909 3.916,1.01818182 7.5,1.01818182 C11.084,1.01818182 14,3.98770909 14,7.63738182 L14,20.3626182 Z" id="Shape" fill-rule="nonzero"></path>
                <path d="M14.1463892,30.1466227 L7.5,36.7930189 L0.853610773,30.1466227 C0.658114031,29.9511258 0.342119298,29.9511258 0.146622556,30.1466227 C-0.0488741854,30.3421197 -0.0488741854,30.6581147 0.146622556,30.8536117 L7.14650589,37.8535023 C7.24400427,37.9510008 7.37200213,38 7.5,38 C7.62799787,38 7.75599573,37.9510008 7.85349411,37.8535023 L14.8533774,30.8536117 C15.0488742,30.6581147 15.0488742,30.3421197 14.8533774,30.1466227 C14.6578807,29.9511258 14.341886,29.9511258 14.1463892,30.1466227 Z" id="Path"></path>
                <path d="M14.1463892,37.1466227 L7.5,43.7930189 L0.853610773,37.1466227 C0.658114031,36.9511258 0.342119298,36.9511258 0.146622556,37.1466227 C-0.0488741854,37.3421197 -0.0488741854,37.6581147 0.146622556,37.8536117 L7.14650589,44.8535023 C7.24400427,44.9510008 7.37200213,45 7.5,45 C7.62799787,45 7.75599573,44.9510008 7.85349411,44.8535023 L14.8533774,37.8536117 C15.0488742,37.6581147 15.0488742,37.3421197 14.8533774,37.1466227 C14.6578807,36.9511258 14.341886,36.9511258 14.1463892,37.1466227 Z" id="Path"></path>
            </g>
        </g>
    </g>
</svg>