<?xml version="1.0" encoding="UTF-8"?>
<svg width="551px" height="541px" viewBox="0 0 551 541" version="1.1" xmlns="http://www.w3.org/2000/svg" xmlns:xlink="http://www.w3.org/1999/xlink">
    <title>Artboard Copy</title>
    <g id="Artboard-Copy" stroke="none" stroke-width="1" fill="none" fill-rule="evenodd">
        <g id="Group-4" transform="translate(85.000000, 74.000000)">
            <g id="Group" transform="translate(74.000000, 0.000000)">
                <g id="shopping-bag-outline" transform="translate(0.000000, 74.000000)" fill-rule="nonzero">
                    <rect id="Rectangle" fill="#000000" opacity="0" x="0" y="0" width="233" height="233"></rect>
                    <path d="M195.444444,65.0694444 L167.930556,37.5555556 C162.465992,32.084181 155.052319,29.0068076 147.319444,29 L85.6805556,29 C77.9476808,29.0068076 70.5340084,32.084181 65.0694444,37.5555556 L37.5555556,65.0694444 C32.084181,70.5340084 29.0068076,77.9476808 29,85.6805556 L29,174.833333 C29,190.941639 42.0583615,204 58.1666667,204 L174.833333,204 C190.941639,204 204,190.941639 204,174.833333 L204,85.6805556 C203.993192,77.9476808 200.915819,70.5340084 195.444444,65.0694444 Z M78.7777778,51.2638889 C80.640884,49.487311 83.1064321,48.4802561 85.6805556,48.4444444 L147.319444,48.4444444 C149.893568,48.4802561 152.359116,49.487311 154.222222,51.2638889 L170.847222,67.8888889 L62.1527778,67.8888889 L78.7777778,51.2638889 Z M174.833333,184.555556 L58.1666667,184.555556 C52.7972316,184.555556 48.4444444,180.202768 48.4444444,174.833333 L48.4444444,87.3333333 L184.555556,87.3333333 L184.555556,174.833333 C184.555556,180.202768 180.202768,184.555556 174.833333,184.555556 Z" id="Shape" fill="#C42052"></path>
                    <path d="M146.25,107 C140.865224,107 136.5,111.387609 136.5,116.8 C136.5,127.624781 127.769553,136.4 117,136.4 C106.230447,136.4 97.5,127.624781 97.5,116.8 C97.5,111.387609 93.1347763,107 87.75,107 C82.3652237,107 78,111.387609 78,116.8 C78,138.449562 95.4608948,156 117,156 C138.539105,156 156,138.449562 156,116.8 C156,111.387609 151.634776,107 146.25,107 Z" id="Path" fill="#C42052"></path>
                </g>
                <g id="Group-2" transform="translate(116.000000, 46.500000) scale(-1, 1) translate(-116.000000, -46.500000) translate(73.000000, 0.000000)" fill="#C42052">
                    <path d="M38.5411222,0.0506024523 C36.1932269,0.367686612 34.1584668,1.85846357 33.1229345,4.0202643 C32.0874023,6.18206503 32.1891028,8.72678709 33.3937441,10.796386 C39.1924567,21.179965 37.5658146,26.303268 35.0114915,33.92967 C32.4571683,41.556072 27.8076094,51.5720019 31.1877249,64.5253037 C31.1872159,64.5749717 31.1872159,64.6246438 31.1877249,64.6743119 C32.9458104,71.0460839 34.1129887,74.1871958 35.0114915,76.1663304 C35.4609311,77.1558976 35.8350249,77.686214 35.8938992,77.8080473 C36.258414,80.507158 38.0998404,82.7629169 40.6452912,83.6285327 C43.1907421,84.4941484 45.9997023,83.8198178 47.8931899,81.8885721 C49.7866775,79.9573263 50.4370059,77.1033865 49.5712181,74.5246134 C49.3147316,73.4140248 48.8946114,72.2697182 48.5417425,71.5396736 C48.1887794,70.8096289 48.0348404,70.5504406 47.8064027,70.0472036 C47.3560219,69.0554394 46.4692845,66.7289057 44.8650438,60.943137 C44.8509253,60.8882141 44.8791623,60.8480965 44.8650438,60.7941288 C42.8171521,52.7294899 45.4796231,47.2597428 48.3946745,38.5563268 C51.329586,29.7936895 53.3235449,17.6113141 45.6003835,3.78177729 C44.2282329,1.18221874 41.4266432,-0.298562384 38.5411222,0.0506024523 L38.5411222,0.0506024523 Z" id="Path"></path>
                    <path d="M73.3939602,0.0684198767 C71.0460912,0.38402444 69.0113539,1.86784505 67.9758333,4.01955826 C66.9403126,6.17127147 67.0420119,8.70411919 68.2466398,10.7640608 C74.0452874,21.0991873 72.5657298,26.1985837 70.0114353,33.7893989 C67.4571408,41.3802141 62.8076339,51.3494071 66.1877116,64.2422654 C66.1872026,64.2917017 66.1872026,64.341142 66.1877116,64.3905783 C67.9457303,70.732618 69.1129426,73.8590727 70.0114353,75.8289721 C70.4608699,76.8139218 70.8349595,77.3418111 70.8938331,77.4630284 C70.843007,77.4202458 70.7197066,77.3465647 70.7470021,77.4630284 C71.3248613,79.9575203 73.1763623,81.951108 75.6040237,82.6927842 C78.0316852,83.4344605 80.666663,82.8115395 82.5163309,81.0586828 C84.3659989,79.305826 85.1493299,76.6893519 84.5712341,74.1949158 C84.3147505,73.0895095 83.894635,71.9505901 83.54177,71.2239045 C83.1888109,70.4972189 83.0348737,70.2392875 82.8064385,69.7383988 C82.3560627,68.7511198 81.3226925,66.4373912 79.7180463,60.6768141 C79.7039279,60.6221475 79.7321646,60.5822171 79.7180463,60.5285012 C77.6701775,52.501494 80.479685,47.0572702 83.3947037,38.3944665 C86.3295823,29.672718 88.3235189,17.5471887 80.6004441,3.78218409 C79.2083042,1.13890313 76.3297631,-0.344514177 73.3939602,0.0684198767 L73.3939602,0.0684198767 Z" id="Path"></path>
                    <path d="M8.49405575,10.0503416 C6.15168723,10.3657914 4.1217169,11.8488844 3.08862219,13.9995425 C2.05552749,16.1502006 2.1569886,18.6818063 3.35879426,20.7407378 C9.14197903,31.0715091 7.66626334,36.1684524 5.11945535,43.7547852 C2.57264735,51.3411179 -2.20400269,61.3072754 1.15796791,74.1927188 C1.20607613,74.2428562 1.25491042,74.2922749 1.30445491,74.3409589 C3.06624282,80.6781308 4.08395187,83.6676882 4.97249883,85.625266 C5.86104579,87.5828439 5.7443257,86.930207 5.85282938,87.4069987 C6.70366736,91.2610919 10.4808175,93.6874565 14.2893304,92.8264357 C18.0978433,91.9654149 20.4955125,88.1430597 19.6446745,84.2889665 C19.144412,82.0909735 18.3436634,80.6987989 17.8840134,79.686157 C17.4309367,78.6881491 16.4116782,76.3884786 14.8028565,70.6290158 C14.7887713,70.574376 14.8169418,70.5344652 14.8028565,70.4807756 C12.7656543,62.4565643 15.5638847,57.0168631 18.4709005,48.3575946 C21.3976826,39.6394103 23.2379725,27.5198269 15.5364653,13.7622848 C14.1675447,11.1761252 11.3725497,9.70297651 8.493821,10.0503416 L8.49405575,10.0503416 Z" id="Path"></path>
                </g>
            </g>
            <path d="M4.8,298.16 C4.8,297.306662 5.0133312,296.58667 5.44,296 C5.8666688,295.41333 6.5999948,295.12 7.64,295.12 L17.44,295.12 C17.706668,295.12 17.9866652,295.193333 18.28,295.34 C18.5733348,295.486667 18.8466654,295.693332 19.1,295.96 C19.3533346,296.226668 19.5666658,296.546665 19.74,296.92 C19.9133342,297.293335 20,297.706664 20,298.16 L20,357.92 C20,358.933338 19.7133362,359.699997 19.14,360.22 C18.5666638,360.740003 17.8266712,361 16.92,361 L7.64,361 C6.5999948,361 5.8666688,360.740003 5.44,360.22 C5.0133312,359.699997 4.8,358.933338 4.8,357.92 L4.8,298.16 Z M81.88,358.04 C81.88,358.493336 81.8000008,358.926665 81.64,359.34 C81.4799992,359.753335 81.2133352,360.079999 80.84,360.32 C80.5466652,360.613335 80.200002,360.8 79.8,360.88 C79.399998,360.96 79.0533348,361 78.76,361 L70.88,361 C70.3199972,361 69.8666684,360.926667 69.52,360.78 C69.1733316,360.633333 68.8933344,360.426668 68.68,360.16 C68.4666656,359.893332 68.2866674,359.566669 68.14,359.18 C67.9933326,358.793331 67.8400008,358.373336 67.68,357.92 L67.16,356.12 C66.4399964,356.840004 65.6200046,357.546663 64.7,358.24 C63.7799954,358.933337 62.7666722,359.553331 61.66,360.1 C60.5533278,360.646669 59.366673,361.086665 58.1,361.42 C56.833327,361.753335 55.5200068,361.92 54.16,361.92 C51.7333212,361.92 49.4066778,361.613336 47.18,361 C44.9533222,360.386664 42.873343,359.513339 40.94,358.38 C39.006657,357.246661 37.2533412,355.886675 35.68,354.3 C34.1066588,352.713325 32.753339,350.946676 31.62,349 C30.486661,347.053324 29.6133364,344.953345 29,342.7 C28.3866636,340.446655 28.08,338.093346 28.08,335.64 C28.08,331.933315 28.7599932,328.486683 30.12,325.3 C31.4800068,322.113317 33.3333216,319.340012 35.68,316.98 C38.0266784,314.619988 40.7866508,312.766673 43.96,311.42 C47.1333492,310.073327 50.5333152,309.4 54.16,309.4 C55.8133416,309.4 57.3533262,309.586665 58.78,309.96 C60.2066738,310.333335 61.5133274,310.839997 62.7,311.48 C63.8866726,312.120003 64.9599952,312.886662 65.92,313.78 C66.8800048,314.673338 67.7199964,315.639995 68.44,316.68 L69.6,313.04 C69.866668,312.37333 70.0866658,311.833335 70.26,311.42 C70.4333342,311.006665 70.619999,310.700001 70.82,310.5 C71.020001,310.299999 71.2666652,310.166667 71.56,310.1 C71.8533348,310.033333 72.266664,310 72.8,310 L78.76,310 C79.0533348,310 79.399998,310.04 79.8,310.12 C80.200002,310.2 80.5466652,310.386665 80.84,310.68 C81.2133352,310.973335 81.4799992,311.306665 81.64,311.68 C81.8000008,312.053335 81.88,312.479998 81.88,312.96 L81.88,358.04 Z M42.48,335.64 C42.48,337.400009 42.7533306,339.046659 43.3,340.58 C43.8466694,342.113341 44.6266616,343.439994 45.64,344.56 C46.6533384,345.680006 47.8733262,346.566663 49.3,347.22 C50.7266738,347.873337 52.306658,348.2 54.04,348.2 C55.8266756,348.2 57.486659,347.873337 59.02,347.22 C60.553341,346.566663 61.886661,345.680006 63.02,344.56 C64.153339,343.439994 65.0399968,342.113341 65.68,340.58 C66.3200032,339.046659 66.64,337.400009 66.64,335.64 C66.64,333.933325 66.3200032,332.306674 65.68,330.76 C65.0399968,329.213326 64.153339,327.853339 63.02,326.68 C61.886661,325.506661 60.553341,324.580003 59.02,323.9 C57.486659,323.219997 55.8266756,322.88 54.04,322.88 C52.306658,322.88 50.7266738,323.219997 49.3,323.9 C47.8733262,324.580003 46.6533384,325.506661 45.64,326.68 C44.6266616,327.853339 43.8466694,329.213326 43.3,330.76 C42.7533306,332.306674 42.48,333.933325 42.48,335.64 Z M99.08,345.2 C99.8000036,345.920004 100.579996,346.526664 101.42,347.02 C102.260004,347.513336 103.066663,347.913332 103.84,348.22 C104.613337,348.526668 105.29333,348.746666 105.88,348.88 C106.46667,349.013334 106.866666,349.08 107.08,349.08 C107.586669,349.08 108.233329,349.06 109.02,349.02 C109.806671,348.98 110.559996,348.860001 111.28,348.66 C112.000004,348.459999 112.619997,348.133336 113.14,347.68 C113.660003,347.226664 113.92,346.586671 113.92,345.76 C113.92,345.01333 113.773335,344.420002 113.48,343.98 C113.186665,343.539998 112.760003,343.166668 112.2,342.86 C111.639997,342.553332 110.953337,342.280001 110.14,342.04 C109.326663,341.799999 108.413338,341.520002 107.4,341.2 C104.199984,340.346662 101.56001,339.320006 99.48,338.12 C97.3999896,336.919994 95.7533394,335.580007 94.54,334.1 C93.3266606,332.619993 92.4800024,331.026675 92,329.32 C91.5199976,327.613325 91.28,325.813343 91.28,323.92 C91.28,321.706656 91.7199956,319.693342 92.6,317.88 C93.4800044,316.066658 94.7333252,314.51334 96.36,313.22 C97.9866748,311.92666 99.933322,310.92667 102.2,310.22 C104.466678,309.51333 106.986653,309.16 109.76,309.16 C111.440008,309.16 113.013326,309.299999 114.48,309.58 C115.946674,309.860001 117.34666,310.299997 118.68,310.9 C120.01334,311.500003 121.313327,312.273329 122.58,313.22 C123.846673,314.166671 125.10666,315.293327 126.36,316.6 C126.813336,317.133336 127.046667,317.633331 127.06,318.1 C127.073333,318.566669 126.773336,319.066664 126.16,319.6 C125.119995,320.453338 124.126671,321.293329 123.18,322.12 C122.233329,322.946671 121.253338,323.866662 120.24,324.88 C119.919998,325.146668 119.600002,325.313333 119.28,325.38 C118.959998,325.446667 118.653335,325.44 118.36,325.36 C118.066665,325.28 117.786668,325.146668 117.52,324.96 C117.253332,324.773332 117.013334,324.546668 116.8,324.28 C115.866662,323.239995 114.800006,322.540002 113.6,322.18 C112.399994,321.819998 111.280005,321.64 110.24,321.64 C108.933327,321.64 107.893337,321.866664 107.12,322.32 C106.346663,322.773336 105.986666,323.466662 106.04,324.4 C106.093334,325.093337 106.353331,325.633331 106.82,326.02 C107.286669,326.406669 107.859997,326.719999 108.54,326.96 C109.220003,327.200001 109.939996,327.393333 110.7,327.54 C111.460004,327.686667 112.159997,327.853332 112.8,328.04 C115.200012,328.813337 117.39999,329.653329 119.4,330.56 C121.40001,331.466671 123.133326,332.579993 124.6,333.9 C126.066674,335.220007 127.206663,336.799991 128.02,338.64 C128.833337,340.480009 129.24,342.719987 129.24,345.36 C129.24,348.000013 128.713339,350.35999 127.66,352.44 C126.606661,354.52001 125.160009,356.26666 123.32,357.68 C121.479991,359.09334 119.300013,360.17333 116.78,360.92 C114.259987,361.66667 111.546681,362.04 108.64,362.04 C106.986658,362.04 105.306675,361.893335 103.6,361.6 C101.893325,361.306665 100.240008,360.833337 98.64,360.18 C97.039992,359.526663 95.5200072,358.686672 94.08,357.66 C92.6399928,356.633328 91.3600056,355.386674 90.24,353.92 C89.9466652,353.546665 89.7266674,353.153335 89.58,352.74 C89.4333326,352.326665 89.3666666,351.920002 89.38,351.52 C89.3933334,351.119998 89.4733326,350.753335 89.62,350.42 C89.7666674,350.086665 89.9999984,349.800001 90.32,349.56 L95.48,344.4 C96.1200032,343.866664 96.6866642,343.679999 97.18,343.84 C97.6733358,344.000001 98.3066628,344.45333 99.08,345.2 Z M140.88,302.28 C140.88,301.453329 141.153331,300.833335 141.7,300.42 C142.246669,300.006665 143.026662,299.613335 144.04,299.24 L153.12,296.08 C153.253334,296.053333 153.379999,296.04 153.5,296.04 L153.84,296.04 C154.826672,296.04 155.486665,296.326664 155.82,296.9 C156.153335,297.473336 156.32,298.226662 156.32,299.16 L156.28,310.16 L161.76,310.16 C162.613338,310.16 163.306664,310.413331 163.84,310.92 C164.373336,311.426669 164.64,312.186662 164.64,313.2 L164.64,320.92 C164.64,322.04 164.373336,322.859997 163.84,323.38 C163.306664,323.900003 162.613338,324.16 161.76,324.16 L156.28,324.16 L156.32,357.92 C156.32,358.933338 156.02667,359.699997 155.44,360.22 C154.85333,360.740003 154.040005,361 153,361 L143.96,361 C141.906656,361 140.88,359.973344 140.88,357.92 L140.84,324.16 L136.72,324.16 C134.666656,324.16 133.64,323.080011 133.64,320.92 L133.64,313.2 C133.64,311.173323 134.666656,310.16 136.72,310.16 L140.84,310.16 L140.88,302.28 Z M177,310.92 C177,308.439988 177.533328,306.106678 178.6,303.92 C179.666672,301.733322 181.093324,299.820008 182.88,298.18 C184.666676,296.539992 186.719988,295.246671 189.04,294.3 C191.360012,293.353329 193.786654,292.88 196.32,292.88 L197.12,292.88 C198.026671,292.88 198.726664,293.153331 199.22,293.7 C199.713336,294.246669 199.96,294.999995 199.96,295.96 L199.96,303.6 C199.96,304.586672 199.700003,305.406663 199.18,306.06 C198.659997,306.713337 197.973338,307.04 197.12,307.04 L196.32,307.04 C195.76,307.04 195.226669,307.139999 194.72,307.34 C194.213331,307.540001 193.76,307.813332 193.36,308.16 C192.959998,308.506668 192.640001,308.913331 192.4,309.38 C192.159999,309.846669 192.04,310.359997 192.04,310.92 L192.04,315.52 L198.32,315.52 C199.226671,315.52 199.926664,315.766664 200.42,316.26 C200.913336,316.753336 201.16,317.533328 201.16,318.6 L201.16,325.92 C201.16,327.066672 200.913336,327.906664 200.42,328.44 C199.926664,328.973336 199.226671,329.24 198.32,329.24 L192.04,329.24 L192.04,357.92 C192.04,358.933338 191.700003,359.699997 191.02,360.22 C190.339997,360.740003 189.600004,361 188.8,361 L180.16,361 C179.199995,361 178.433336,360.700003 177.86,360.1 C177.286664,359.499997 177,358.773338 177,357.92 L177,329.24 L172.88,329.24 C171.946662,329.24 171.193336,328.973336 170.62,328.44 C170.046664,327.906664 169.76,327.066672 169.76,325.92 L169.76,318.6 C169.76,317.533328 170.046664,316.753336 170.62,316.26 C171.193336,315.766664 171.946662,315.52 172.88,315.52 L177,315.52 L177,310.92 Z M205.28,335.64 C205.28,333.186654 205.59333,330.826678 206.22,328.56 C206.84667,326.293322 207.726661,324.193343 208.86,322.26 C209.993339,320.326657 211.353325,318.566675 212.94,316.98 C214.526675,315.393325 216.293324,314.040006 218.24,312.92 C220.186676,311.799994 222.286655,310.933336 224.54,310.32 C226.793345,309.706664 229.146654,309.4 231.6,309.4 C235.226685,309.4 238.633317,310.073327 241.82,311.42 C245.006683,312.766673 247.779988,314.619988 250.14,316.98 C252.500012,319.340012 254.36666,322.113317 255.74,325.3 C257.11334,328.486683 257.8,331.933315 257.8,335.64 C257.8,338.093346 257.48667,340.446655 256.86,342.7 C256.23333,344.953345 255.353339,347.053324 254.22,349 C253.086661,350.946676 251.726675,352.713325 250.14,354.3 C248.553325,355.886675 246.786676,357.246661 244.84,358.38 C242.893324,359.513339 240.806678,360.386664 238.58,361 C236.353322,361.613336 234.026679,361.92 231.6,361.92 C229.146654,361.92 226.793345,361.613336 224.54,361 C222.286655,360.386664 220.186676,359.513339 218.24,358.38 C216.293324,357.246661 214.526675,355.886675 212.94,354.3 C211.353325,352.713325 209.993339,350.946676 208.86,349 C207.726661,347.053324 206.84667,344.953345 206.22,342.7 C205.59333,340.446655 205.28,338.093346 205.28,335.64 Z M219.88,335.64 C219.88,337.400009 220.153331,339.046659 220.7,340.58 C221.246669,342.113341 222.019995,343.439994 223.02,344.56 C224.020005,345.680006 225.233326,346.566663 226.66,347.22 C228.086674,347.873337 229.693324,348.2 231.48,348.2 C233.213342,348.2 234.779993,347.873337 236.18,347.22 C237.580007,346.566663 238.766662,345.680006 239.74,344.56 C240.713338,343.439994 241.459997,342.113341 241.98,340.58 C242.500003,339.046659 242.76,337.400009 242.76,335.64 C242.76,333.933325 242.500003,332.306674 241.98,330.76 C241.459997,329.213326 240.713338,327.853339 239.74,326.68 C238.766662,325.506661 237.580007,324.580003 236.18,323.9 C234.779993,323.219997 233.213342,322.88 231.48,322.88 C229.693324,322.88 228.086674,323.219997 226.66,323.9 C225.233326,324.580003 224.020005,325.506661 223.02,326.68 C222.019995,327.853339 221.246669,329.213326 220.7,330.76 C220.153331,332.306674 219.88,333.933325 219.88,335.64 Z M264.2,335.64 C264.2,333.186654 264.51333,330.826678 265.14,328.56 C265.76667,326.293322 266.646661,324.193343 267.78,322.26 C268.913339,320.326657 270.273325,318.566675 271.86,316.98 C273.446675,315.393325 275.213324,314.040006 277.16,312.92 C279.106676,311.799994 281.206655,310.933336 283.46,310.32 C285.713345,309.706664 288.066654,309.4 290.52,309.4 C294.146685,309.4 297.553317,310.073327 300.74,311.42 C303.926683,312.766673 306.699988,314.619988 309.06,316.98 C311.420012,319.340012 313.28666,322.113317 314.66,325.3 C316.03334,328.486683 316.72,331.933315 316.72,335.64 C316.72,338.093346 316.40667,340.446655 315.78,342.7 C315.15333,344.953345 314.273339,347.053324 313.14,349 C312.006661,350.946676 310.646675,352.713325 309.06,354.3 C307.473325,355.886675 305.706676,357.246661 303.76,358.38 C301.813324,359.513339 299.726678,360.386664 297.5,361 C295.273322,361.613336 292.946679,361.92 290.52,361.92 C288.066654,361.92 285.713345,361.613336 283.46,361 C281.206655,360.386664 279.106676,359.513339 277.16,358.38 C275.213324,357.246661 273.446675,355.886675 271.86,354.3 C270.273325,352.713325 268.913339,350.946676 267.78,349 C266.646661,347.053324 265.76667,344.953345 265.14,342.7 C264.51333,340.446655 264.2,338.093346 264.2,335.64 Z M278.8,335.64 C278.8,337.400009 279.073331,339.046659 279.62,340.58 C280.166669,342.113341 280.939995,343.439994 281.94,344.56 C282.940005,345.680006 284.153326,346.566663 285.58,347.22 C287.006674,347.873337 288.613324,348.2 290.4,348.2 C292.133342,348.2 293.699993,347.873337 295.1,347.22 C296.500007,346.566663 297.686662,345.680006 298.66,344.56 C299.633338,343.439994 300.379997,342.113341 300.9,340.58 C301.420003,339.046659 301.68,337.400009 301.68,335.64 C301.68,333.933325 301.420003,332.306674 300.9,330.76 C300.379997,329.213326 299.633338,327.853339 298.66,326.68 C297.686662,325.506661 296.500007,324.580003 295.1,323.9 C293.699993,323.219997 292.133342,322.88 290.4,322.88 C288.613324,322.88 287.006674,323.219997 285.58,323.9 C284.153326,324.580003 282.940005,325.506661 281.94,326.68 C280.939995,327.853339 280.166669,329.213326 279.62,330.76 C279.073331,332.306674 278.8,333.933325 278.8,335.64 Z M360.88,356 C360.159996,356.720004 359.340005,357.43333 358.42,358.14 C357.499995,358.84667 356.500005,359.479997 355.42,360.04 C354.339995,360.600003 353.180006,361.053332 351.94,361.4 C350.699994,361.746668 349.386674,361.92 348,361.92 C344.373315,361.92 341.033349,361.240007 337.98,359.88 C334.926651,358.519993 332.300011,356.660012 330.1,354.3 C327.899989,351.939988 326.180006,349.160016 324.94,345.96 C323.699994,342.759984 323.08,339.320018 323.08,335.64 C323.08,331.933315 323.699994,328.486683 324.94,325.3 C326.180006,322.113317 327.899989,319.340012 330.1,316.98 C332.300011,314.619988 334.926651,312.766673 337.98,311.42 C341.033349,310.073327 344.373315,309.4 348,309.4 C349.466674,309.4 350.806661,309.526665 352.02,309.78 C353.233339,310.033335 354.339995,310.399998 355.34,310.88 C356.340005,311.360002 357.259996,311.93333 358.1,312.6 C358.940004,313.26667 359.73333,313.999996 360.48,314.8 L360.48,298.12 C360.48,297.266662 360.739997,296.54667 361.26,295.96 C361.780003,295.37333 362.559995,295.08 363.6,295.08 L372.6,295.08 C372.946668,295.08 373.313331,295.153333 373.7,295.3 C374.086669,295.446667 374.439998,295.653332 374.76,295.92 C375.08,296.186668 375.339999,296.506665 375.54,296.88 C375.740001,297.253335 375.84,297.666664 375.84,298.12 L375.84,357.92 C375.84,359.973344 374.760011,361 372.6,361 L364.76,361 C364.226664,361 363.813335,360.933334 363.52,360.8 C363.226665,360.666666 362.980001,360.473335 362.78,360.22 C362.58,359.966665 362.400001,359.646669 362.24,359.26 C362.08,358.873331 361.880001,358.426669 361.64,357.92 L360.88,356 Z M337.48,335.64 C337.48,337.400009 337.753331,339.046659 338.3,340.58 C338.846669,342.113341 339.626662,343.439994 340.64,344.56 C341.653338,345.680006 342.873326,346.566663 344.3,347.22 C345.726674,347.873337 347.306658,348.2 349.04,348.2 C350.746675,348.2 352.353326,347.893336 353.86,347.28 C355.366674,346.666664 356.679994,345.820005 357.8,344.74 C358.920006,343.659995 359.819997,342.386674 360.5,340.92 C361.180003,339.453326 361.56,337.88 361.64,336.2 L361.64,335.64 C361.64,333.933325 361.320003,332.306674 360.68,330.76 C360.039997,329.213326 359.153339,327.853339 358.02,326.68 C356.886661,325.506661 355.553341,324.580003 354.02,323.9 C352.486659,323.219997 350.826676,322.88 349.04,322.88 C347.306658,322.88 345.726674,323.219997 344.3,323.9 C342.873326,324.580003 341.653338,325.506661 340.64,326.68 C339.626662,327.853339 338.846669,329.213326 338.3,330.76 C337.753331,332.306674 337.48,333.933325 337.48,335.64 Z" id="lastfood" fill="#C42052" fill-rule="nonzero"></path>
        </g>
    </g>
</svg>