<?xml version="1.0" encoding="UTF-8"?>
<svg width="172px" height="191px" viewBox="0 0 172 191" version="1.1" xmlns="http://www.w3.org/2000/svg" xmlns:xlink="http://www.w3.org/1999/xlink">
    <title>owl</title>
    <g id="Page-1" stroke="none" stroke-width="1" fill="none" fill-rule="evenodd">
        <g id="Owl/Outline" fill="#1F1F1F" transform="translate(1.000000, 1.000000)">
            <g fill="none">
                <path d="M133.7655,109.8222 C139.2495,119.7942 142.4115,131.5062 142.4115,144.0382 C142.4115,151.5902 141.2495,158.8382 139.1375,165.5932 C157.9875,147.1392 169.9995,119.2462 169.9995,88.0302 C169.9995,51.9632 153.9595,20.3402 129.8675,2.5822 C125.8635,-0.3678 120.5675,-0.8318 116.1255,1.4072 C107.1175,5.9492 95.8635,8.6502 83.6495,8.6502 C71.9735,8.6502 61.1745,6.1822 52.3745,1.9992 C47.9685,-0.0958 42.7655,0.5642 38.8915,3.5312 C15.4935,21.4492 -0.0005,52.5892 -0.0005,88.0302 C-0.0005,116.0512 9.6865,141.3862 25.3025,159.6292 C25.2985,159.6122 25.2955,159.5932 25.2915,159.5772" id="Stroke-1" stroke="#434342" stroke-width="2" stroke-linecap="round" stroke-linejoin="round"></path>
                <path d="M122.6903,95.0614 C126.9963,99.3484 130.7363,104.3174 133.7653,109.8224" id="Stroke-3" stroke="#434342" stroke-width="2" stroke-linecap="round" stroke-linejoin="round"></path>
                <path d="M43.9393,94.4804 C31.4873,106.5464 23.6113,124.2674 23.6113,144.0384 C23.6113,149.3934 24.2023,154.5934 25.2923,159.5774" id="Stroke-5" stroke="#434342" stroke-width="2" stroke-linecap="round" stroke-linejoin="round"></path>
                <path d="M133.7655,109.8222 C139.2125,119.7692 142.3495,131.4432 142.3495,143.9272 C142.3495,151.4802 141.1875,158.7272 139.0755,165.4832 C124.3715,179.8772 105.5085,188.5282 84.9385,188.5282 C61.6935,188.5282 40.6365,177.4722 25.2915,159.5772" id="Stroke-7" stroke="#434342" stroke-width="2" stroke-linecap="round" stroke-linejoin="round"></path>
                <path d="M43.7977,94.4462 C31.3917,106.5102 23.5487,124.1992 23.5487,143.9272 C23.5487,149.3012 24.1437,154.5192 25.2397,159.5182 C25.2567,159.5392 25.2757,159.5572 25.2917,159.5772" id="Stroke-9" stroke="#434342" stroke-width="2" stroke-linecap="round" stroke-linejoin="round"></path>
                <path d="M122.7333,95.0527 C127.0243,99.3457 130.7503,104.3187 133.7653,109.8227" id="Stroke-11" stroke="#434342" stroke-width="2" stroke-linecap="round" stroke-linejoin="round"></path>
                <path d="M104.6434,133.3027 C105.0044,138.2317 106.7414,142.1207 108.5204,141.9897 C110.2994,141.8587 111.4494,137.7577 111.0874,132.8297 C110.7254,127.9017 108.9904,124.0127 107.2094,124.1437 C105.4304,124.2737 104.2814,128.3747 104.6434,133.3027" id="Fill-13" fill="#434342"></path>
                <path d="M115.8182,123.2909 C117.6032,123.2909 119.0492,119.2849 119.0492,114.3439 C119.0492,109.4019 117.6032,105.3959 115.8182,105.3959 C114.0342,105.3959 112.5882,109.4019 112.5882,114.3439 C112.5882,119.2849 114.0342,123.2909 115.8182,123.2909" id="Fill-15" fill="#434342"></path>
                <path d="M56.1698,108.9579 C56.1698,104.0169 54.7238,100.0109 52.9388,100.0109 C51.1538,100.0109 49.7068,104.0169 49.7068,108.9579 C49.7068,113.8989 51.1538,117.9049 52.9388,117.9049 C54.7238,117.9049 56.1698,113.8989 56.1698,108.9579" id="Fill-17" fill="#434342"></path>
                <path d="M78.538,138.5663 C80.322,138.5663 81.769,134.5603 81.769,129.6193 C81.769,124.6773 80.322,120.6713 78.538,120.6713 C76.754,120.6713 75.308,124.6773 75.308,129.6193 C75.308,134.5603 76.754,138.5663 78.538,138.5663" id="Fill-19" fill="#434342"></path>
                <path d="M43.66,120.6718 C43.66,115.7308 42.213,111.7248 40.429,111.7248 C38.643,111.7248 37.197,115.7308 37.197,120.6718 C37.197,125.6128 38.643,129.6188 40.429,129.6188 C42.213,129.6188 43.66,125.6128 43.66,120.6718" id="Fill-21" fill="#434342"></path>
                <path d="M46.4764,138.5663 C46.4764,143.5073 47.9234,147.5143 49.7064,147.5143 C51.4924,147.5143 52.9384,143.5073 52.9384,138.5663 C52.9384,133.6253 51.4924,129.6193 49.7064,129.6193 C47.9234,129.6193 46.4764,133.6253 46.4764,138.5663" id="Fill-23" fill="#434342"></path>
                <path d="M66.2977,149.7187 C66.2977,154.6597 67.7437,158.6657 69.5277,158.6657 C71.3137,158.6657 72.7597,154.6597 72.7597,149.7187 C72.7597,144.7767 71.3137,140.7707 69.5277,140.7707 C67.7437,140.7707 66.2977,144.7767 66.2977,149.7187" id="Fill-25" fill="#434342"></path>
                <path d="M37.1971,142.0136 C35.4131,142.0136 33.9661,146.0196 33.9661,150.9606 C33.9661,155.9026 35.4131,159.9086 37.1971,159.9086 C38.9811,159.9086 40.4281,155.9026 40.4281,150.9606 C40.4281,146.0196 38.9811,142.0136 37.1971,142.0136" id="Fill-27" fill="#434342"></path>
                <path d="M70.369,172.6191 C70.731,177.5471 72.468,181.4351 74.247,181.3061 C76.026,181.1751 77.176,177.0741 76.813,172.1451 C76.451,167.2181 74.716,163.3281 72.936,163.4591 C71.156,163.5901 70.008,167.6901 70.369,172.6191" id="Fill-29" fill="#434342"></path>
                <path d="M90.2186,172.3818 C90.2186,177.3238 91.6656,181.3298 93.4496,181.3298 C95.2356,181.3298 96.6816,177.3238 96.6816,172.3818 C96.6816,167.4408 95.2356,163.4358 93.4496,163.4358 C91.6656,163.4358 90.2186,167.4408 90.2186,172.3818" id="Fill-31" fill="#434342"></path>
                <path d="M50.702,162.8905 C50.702,167.8325 52.148,171.8375 53.932,171.8375 C55.718,171.8375 57.164,167.8325 57.164,162.8905 C57.164,157.9495 55.718,153.9435 53.932,153.9435 C52.148,153.9435 50.702,157.9495 50.702,162.8905" id="Fill-33" fill="#434342"></path>
                <path d="M98.1727,153.9433 C98.1727,158.8843 99.6187,162.8903 101.4027,162.8903 C103.1887,162.8903 104.6347,158.8843 104.6347,153.9433 C104.6347,149.0023 103.1887,144.9963 101.4027,144.9963 C99.6187,144.9963 98.1727,149.0023 98.1727,153.9433" id="Fill-35" fill="#434342"></path>
                <path d="M81.7694,153.9433 C81.7694,158.8843 83.2154,162.8903 84.9994,162.8903 C86.7854,162.8903 88.2314,158.8843 88.2314,153.9433 C88.2314,149.0023 86.7854,144.9963 84.9994,144.9963 C83.2154,144.9963 81.7694,149.0023 81.7694,153.9433" id="Fill-37" fill="#434342"></path>
                <path d="M115.8182,142.0136 C115.8182,146.9546 117.2642,150.9606 119.0492,150.9606 C120.8342,150.9606 122.2812,146.9546 122.2812,142.0136 C122.2812,137.0726 120.8342,133.0666 119.0492,133.0666 C117.2642,133.0666 115.8182,137.0726 115.8182,142.0136" id="Fill-39" fill="#434342"></path>
                <path d="M96.6815,133.3144 C96.6815,128.3734 95.2355,124.3674 93.4505,124.3674 C91.6655,124.3674 90.2185,128.3734 90.2185,133.3144 C90.2185,138.2554 91.6655,142.2614 93.4505,142.2614 C95.2355,142.2614 96.6815,138.2554 96.6815,133.3144" id="Fill-41" fill="#434342"></path>
                <path d="M58.2821,126.4218 C58.2821,131.3618 59.7281,135.3678 61.5131,135.3678 C63.2981,135.3678 64.7441,131.3618 64.7441,126.4218 C64.7441,121.4798 63.2981,117.4738 61.5131,117.4738 C59.7281,117.4738 58.2821,121.4798 58.2821,126.4218" id="Fill-43" fill="#434342"></path>
                <path d="M109.3563,167.6132 C109.3563,172.5542 110.8033,176.5602 112.5873,176.5602 C114.3723,176.5602 115.8183,172.5542 115.8183,167.6132 C115.8183,162.6722 114.3723,158.6662 112.5873,158.6662 C110.8033,158.6662 109.3563,162.6722 109.3563,167.6132" id="Fill-45" fill="#434342"></path>
                <path d="M134.0858,158.6659 C134.0858,153.7249 132.6398,149.7189 130.8558,149.7189 C129.0708,149.7189 127.6238,153.7249 127.6238,158.6659 C127.6238,163.6069 129.0708,167.6129 130.8558,167.6129 C132.6398,167.6129 134.0858,163.6069 134.0858,158.6659" id="Fill-47" fill="#434342"></path>
                <path d="M132.4706,127.1015 C132.4706,122.1605 131.0246,118.1545 129.2406,118.1545 C127.4546,118.1545 126.0086,122.1605 126.0086,127.1015 C126.0086,132.0425 127.4546,136.0485 129.2406,136.0485 C131.0246,136.0485 132.4706,132.0425 132.4706,127.1015" id="Fill-49" fill="#434342"></path>
                <path d="M105.744,93.4609 C105.086,93.2199 104.436,92.9569 103.797,92.6759" id="Stroke-51" stroke="#434342" stroke-width="2" stroke-linecap="round" stroke-linejoin="round"></path>
                <path d="M109.1552,94.5312 C108.2582,94.3052 107.3792,94.0342 106.5092,93.7382" id="Stroke-53" stroke="#434342" stroke-width="2" stroke-linecap="round" stroke-linejoin="round"></path>
                <path d="M105.744,93.4609 C105.999,93.5549 106.251,93.6499 106.509,93.7379" id="Stroke-55" stroke="#434342" stroke-width="2" stroke-linecap="round" stroke-linejoin="round"></path>
                <path d="M109.1874,94.54 C109.1754,94.537 109.1664,94.533 109.1554,94.531" id="Stroke-57" stroke="#434342" stroke-width="2" stroke-linecap="round" stroke-linejoin="round"></path>
                <path d="M61.0038,93.5282 C59.9828,93.8632 58.9488,94.1662 57.8888,94.4022 C55.8518,94.8562 53.7478,95.1252 51.5888,95.1832 C48.9668,95.2552 46.4118,94.9932 43.9398,94.4802" id="Stroke-59" stroke="#434342" stroke-width="2" stroke-linecap="round" stroke-linejoin="round"></path>
                <path d="M122.6903,95.0614 C122.7053,95.0584 122.7193,95.0554 122.7333,95.0524" id="Stroke-61" stroke="#434342" stroke-width="2" stroke-linecap="round" stroke-linejoin="round"></path>
                <path d="M43.7977,94.4462 C28.1187,91.1212 16.0807,76.7062 15.6047,59.0692 C15.0507,38.6022 30.2647,21.5862 49.5847,21.0642 C61.0797,20.7532 71.4137,26.3712 78.0327,35.2682 C78.0327,35.2682 80.8087,38.8702 84.1087,38.7812 C87.4087,38.6922 89.9857,35.0122 89.9857,35.0122 C96.1867,26.9602 105.5327,21.7042 116.1257,21.4172 C135.4457,20.8942 151.5577,37.0632 152.1107,57.5312 C152.6187,76.3382 139.8037,92.1922 122.7337,95.0522" id="Stroke-63" stroke="#434342" stroke-width="2" stroke-linecap="round" stroke-linejoin="round"></path>
                <path d="M109.1874,94.54 C110.1964,94.791 111.2214,94.997 112.2614,95.155 C114.1744,95.446 116.1314,95.591 118.1304,95.537 C119.6824,95.495 121.1964,95.31 122.6904,95.061" id="Stroke-65" stroke="#434342" stroke-width="2" stroke-linecap="round" stroke-linejoin="round"></path>
                <path d="M43.7977,94.4462 C43.8457,94.4562 43.8917,94.4692 43.9397,94.4802" id="Stroke-67" stroke="#434342" stroke-width="2" stroke-linecap="round" stroke-linejoin="round"></path>
                <path d="M113.2889,56.6308 C109.2849,52.6268 102.7939,52.6268 98.7899,56.6308 C94.7869,60.6338 94.7869,67.1248 98.7899,71.1288 C102.7939,75.1328 109.2849,75.1328 113.2889,71.1288 C117.2929,67.1248 117.2929,60.6338 113.2889,56.6308 Z" id="Stroke-69" stroke="#434342" stroke-width="2" stroke-linecap="round" stroke-linejoin="round"></path>
                <path d="M67.4335,56.6308 C63.4305,52.6268 56.9385,52.6268 52.9345,56.6308 C48.9315,60.6338 48.9315,67.1248 52.9345,71.1288 C56.9385,75.1328 63.4305,75.1328 67.4335,71.1288 C71.4375,67.1248 71.4375,60.6338 67.4335,56.6308 Z" id="Stroke-71" stroke="#434342" stroke-width="2" stroke-linecap="round" stroke-linejoin="round"></path>
                <line x1="98.2997" y1="111.3095" x2="104.1887" y2="104.4955" id="Stroke-73" stroke="#434342" stroke-width="2" stroke-linecap="round" stroke-linejoin="round"></line>
                <path d="M104.1884,104.495 L110.1764,97.566 C111.0924,96.507 110.5494,94.879 109.1904,94.541 L109.1874,94.54" id="Stroke-75" stroke="#434342" stroke-width="2" stroke-linecap="round" stroke-linejoin="round"></path>
                <line x1="66.3417" y1="104.1825" x2="72.0807" y2="110.8235" id="Stroke-77" stroke="#434342" stroke-width="2" stroke-linecap="round" stroke-linejoin="round"></line>
                <path d="M61.0038,93.5282 C60.8968,93.5632 60.7948,93.6142 60.6878,93.6492 C59.4048,94.0542 58.9428,95.6222 59.8218,96.6392 L66.3418,104.1822" id="Stroke-79" stroke="#434342" stroke-width="2" stroke-linecap="round" stroke-linejoin="round"></path>
                <path d="M98.2997,111.3095 L91.4427,119.2445 C88.2577,122.9295 82.5437,122.9295 79.3597,119.2445 L72.0807,110.8235" id="Stroke-81" stroke="#434342" stroke-width="2" stroke-linecap="round" stroke-linejoin="round"></path>
                <path d="M103.7968,92.6757 C104.4368,92.9567 105.0858,93.2197 105.7438,93.4607" id="Stroke-83" stroke="#434342" stroke-width="2" stroke-linecap="round" stroke-linejoin="round"></path>
                <path d="M106.5087,93.7382 C107.3787,94.0342 108.2577,94.3062 109.1547,94.5312" id="Stroke-85" stroke="#434342" stroke-width="2" stroke-linecap="round" stroke-linejoin="round"></path>
                <path d="M109.1874,94.54 C109.1754,94.537 109.1664,94.533 109.1554,94.531" id="Stroke-87" stroke="#434342" stroke-width="2" stroke-linecap="round" stroke-linejoin="round"></path>
                <path d="M106.5087,93.7382 C106.2517,93.6502 105.9977,93.5542 105.7437,93.4612" id="Stroke-89" stroke="#434342" stroke-width="2" stroke-linecap="round" stroke-linejoin="round"></path>
                <line x1="80.996" y1="78.2685" x2="80.971" y2="78.2685" id="Stroke-91" stroke="#434342" stroke-width="2" stroke-linecap="round" stroke-linejoin="round"></line>
                <path d="M81.1591,78.1523 C81.1591,78.1523 81.1681,78.1513 81.1721,78.1513" id="Stroke-93" stroke="#434342" stroke-width="2" stroke-linecap="round" stroke-linejoin="round"></path>
                <path d="M80.996,78.2685 C81.056,78.2295 81.111,78.1885 81.172,78.1515" id="Stroke-95" stroke="#434342" stroke-width="2" stroke-linecap="round" stroke-linejoin="round"></path>
                <path d="M61.0038,93.5282 C61.9688,93.2122 62.9118,92.8462 63.8378,92.4462" id="Stroke-97" stroke="#434342" stroke-width="2" stroke-linecap="round" stroke-linejoin="round"></path>
                <path d="M64.662,92.08 C64.389,92.207 64.114,92.327 63.838,92.446" id="Stroke-99" stroke="#434342" stroke-width="2" stroke-linecap="round" stroke-linejoin="round"></path>
                <path d="M64.662,92.08 C65.691,91.601 66.705,91.092 67.679,90.515" id="Stroke-101" stroke="#434342" stroke-width="2" stroke-linecap="round" stroke-linejoin="round"></path>
                <path d="M81.7772,77.8388 C81.5712,77.9368 81.3662,78.0338 81.1722,78.1508" id="Stroke-103" stroke="#434342" stroke-width="2" stroke-linecap="round" stroke-linejoin="round"></path>
                <path d="M77.8553,81.415 C77.8553,81.415 79.1183,79.478 80.9963,78.269" id="Stroke-105" stroke="#434342" stroke-width="2" stroke-linecap="round" stroke-linejoin="round"></path>
                <path d="M67.6786,90.5146 C66.7046,91.0916 65.6916,91.6026 64.6616,92.0796" id="Stroke-107" stroke="#434342" stroke-width="2" stroke-linecap="round" stroke-linejoin="round"></path>
                <path d="M63.8378,92.4462 C64.1148,92.3272 64.3888,92.2072 64.6618,92.0802" id="Stroke-109" stroke="#434342" stroke-width="2" stroke-linecap="round" stroke-linejoin="round"></path>
                <path d="M81.1591,78.1523 C81.0941,78.1893 81.0331,78.2293 80.9711,78.2683" id="Stroke-111" stroke="#434342" stroke-width="2" stroke-linecap="round" stroke-linejoin="round"></path>
                <path d="M61.0038,93.5282 C61.9688,93.2122 62.9118,92.8462 63.8378,92.4462" id="Stroke-113" stroke="#434342" stroke-width="2" stroke-linecap="round" stroke-linejoin="round"></path>
                <path d="M77.8553,81.415 C77.8553,81.415 79.0173,79.48 80.9703,78.269" id="Stroke-115" stroke="#434342" stroke-width="2" stroke-linecap="round" stroke-linejoin="round"></path>
                <path d="M81.1591,77.9316 C81.3581,77.8166 81.5621,77.7146 81.7771,77.6186 L83.8571,76.4466 L85.6231,76.0536 L87.4891,76.0536 L89.2561,76.7656" id="Stroke-117" stroke="#434342" stroke-width="2" stroke-linecap="round" stroke-linejoin="round"></path>
                <path d="M67.6786,90.5146 C71.6036,88.1896 75.0576,85.0926 77.8556,81.4146" id="Stroke-119" stroke="#434342" stroke-width="2" stroke-linecap="round" stroke-linejoin="round"></path>
                <line x1="89.8026" y1="77.4159" x2="89.8206" y2="77.4159" id="Stroke-121" stroke="#434342" stroke-width="2" stroke-linecap="round" stroke-linejoin="round"></line>
                <line x1="89.6893" y1="77.2997" x2="89.6793" y2="77.2987" id="Stroke-123" stroke="#434342" stroke-width="2" stroke-linecap="round" stroke-linejoin="round"></line>
                <path d="M89.8026,77.4159 C89.7606,77.3769 89.7226,77.3359 89.6796,77.2989" id="Stroke-125" stroke="#434342" stroke-width="2" stroke-linecap="round" stroke-linejoin="round"></path>
                <path d="M103.7968,92.6757 C103.1208,92.3597 102.4608,91.9937 101.8128,91.5937" id="Stroke-127" stroke="#434342" stroke-width="2" stroke-linecap="round" stroke-linejoin="round"></path>
                <path d="M101.2362,91.2275 C101.4262,91.3535 101.6192,91.4745 101.8122,91.5935" id="Stroke-129" stroke="#434342" stroke-width="2" stroke-linecap="round" stroke-linejoin="round"></path>
                <path d="M101.2362,91.2275 C100.5152,90.7485 99.8062,90.2395 99.1252,89.6625" id="Stroke-131" stroke="#434342" stroke-width="2" stroke-linecap="round" stroke-linejoin="round"></path>
                <path d="M89.2557,76.9853 C89.4007,77.0843 89.5437,77.1803 89.6797,77.2983" id="Stroke-133" stroke="#434342" stroke-width="2" stroke-linecap="round" stroke-linejoin="round"></path>
                <path d="M92.0009,80.5614 C92.0009,80.5614 91.1169,78.6244 89.8029,77.4154" id="Stroke-135" stroke="#434342" stroke-width="2" stroke-linecap="round" stroke-linejoin="round"></path>
                <path d="M99.1249,89.662 C99.8069,90.239 100.5159,90.749 101.2359,91.227" id="Stroke-137" stroke="#434342" stroke-width="2" stroke-linecap="round" stroke-linejoin="round"></path>
                <path d="M101.8124,91.5937 C101.6194,91.4747 101.4264,91.3537 101.2364,91.2277" id="Stroke-139" stroke="#434342" stroke-width="2" stroke-linecap="round" stroke-linejoin="round"></path>
                <path d="M89.6893,77.2997 C89.7343,77.3367 89.7763,77.3767 89.8203,77.4157" id="Stroke-141" stroke="#434342" stroke-width="2" stroke-linecap="round" stroke-linejoin="round"></path>
                <path d="M103.7968,92.6757 C103.1208,92.3597 102.4608,91.9937 101.8128,91.5937" id="Stroke-143" stroke="#434342" stroke-width="2" stroke-linecap="round" stroke-linejoin="round"></path>
                <path d="M92.0009,80.5614 C92.0009,80.5614 91.1879,78.6274 89.8199,77.4154" id="Stroke-145" stroke="#434342" stroke-width="2" stroke-linecap="round" stroke-linejoin="round"></path>
                <path d="M89.2557,76.9853 C89.4057,77.0823 89.5497,77.1833 89.6897,77.2993" id="Stroke-147" stroke="#434342" stroke-width="2" stroke-linecap="round" stroke-linejoin="round"></path>
                <path d="M99.1249,89.662 C96.3779,87.336 93.9599,84.24 92.0009,80.561" id="Stroke-149" stroke="#434342" stroke-width="2" stroke-linecap="round" stroke-linejoin="round"></path>
            </g>
        </g>
    </g>
</svg>