<?xml version="1.0" encoding="UTF-8"?>
<svg width="513px" height="513px" viewBox="0 0 513 513" version="1.1" xmlns="http://www.w3.org/2000/svg" xmlns:xlink="http://www.w3.org/1999/xlink">
    <title>pulsar</title>
    <g id="pulsar" stroke="none" stroke-width="1" fill="none" fill-rule="evenodd">
        <rect fill="#000000" x="0" y="0" width="513" height="513"></rect>
        <path d="M45.021111,286.692414 L45.021111,270.124661 L57.1250132,270.124661 C62.4472964,270.124661 67.0685262,269.251921 70.9887025,267.506441 C74.9088789,265.760961 77.9277008,263.242892 80.0451683,259.952233 C82.1626358,256.661574 83.2213696,252.812933 83.2213696,248.406312 C83.2213696,243.942461 82.1626358,240.079514 80.0451683,236.817469 C77.9277008,233.555425 74.9088789,231.037355 70.9887025,229.263261 C67.0685262,227.489167 62.4472964,226.602119 57.1250132,226.602119 L57.1250132,226.602119 L31.1145,226.602119 L31.1145,286.692414 L45.021111,286.692414 Z M56.3524237,258.793348 L45.021111,258.793348 L45.021111,237.933432 L56.3524237,237.933432 C60.5301298,237.933432 63.7063311,238.834786 65.8810275,240.637495 C68.0557238,242.440204 69.143072,245.02981 69.143072,248.406312 C69.143072,251.725585 68.0557238,254.286576 65.8810275,256.089285 C63.7063311,257.891994 60.5301298,258.793348 56.3524237,258.793348 L56.3524237,258.793348 Z M138.60936,287.722533 C147.193688,287.722533 153.875156,285.347536 158.653765,280.597541 C163.432374,275.847546 165.821679,269.065927 165.821679,260.252684 L165.821679,260.252684 L165.821679,226.602119 L152.086755,226.602119 L152.086755,259.737625 C152.086755,265.288823 150.942178,269.366379 148.653023,271.970292 C146.363869,274.574204 143.044596,275.876161 138.695203,275.876161 C129.767502,275.876161 125.303652,270.496649 125.303652,259.737625 L125.303652,259.737625 L125.303652,226.602119 L111.397041,226.602119 L111.397041,260.252684 C111.397041,269.065927 113.786346,275.847546 118.564955,280.597541 C123.343564,285.347536 130.025032,287.722533 138.60936,287.722533 Z M242.670489,286.692414 L242.670489,275.361101 L212.539498,275.361101 L212.539498,226.602119 L198.632887,226.602119 L198.632887,286.692414 L242.670489,286.692414 Z M288.959092,287.722533 C294.453062,287.722533 299.117213,286.892715 302.951546,285.233078 C306.785879,283.573441 309.661629,281.327209 311.578796,278.494381 C313.495962,275.661553 314.454545,272.528273 314.454545,269.094542 C314.454545,265.088522 313.410119,261.912321 311.321266,259.565938 C309.232413,257.219555 306.72865,255.50269 303.809979,254.415341 C300.891307,253.327993 297.142818,252.240645 292.56451,251.153297 C288.157888,250.180406 284.881536,249.193209 282.735454,248.191704 C280.589372,247.190199 279.516331,245.659327 279.516331,243.599088 C279.516331,241.53885 280.4463,239.879213 282.306238,238.620178 C284.166176,237.361143 287.041925,236.731626 290.933487,236.731626 C296.484686,236.731626 302.035885,238.30542 307.587083,241.453006 L307.587083,241.453006 L311.879247,230.894283 C309.132262,229.177418 305.927446,227.861154 302.2648,226.945492 C298.602153,226.029831 294.853664,225.572 291.019331,225.572 C285.525361,225.572 280.875517,226.401818 277.069798,228.061455 C273.264079,229.721092 270.416944,231.967324 268.528392,234.800152 C266.63984,237.632981 265.695564,240.794875 265.695564,244.285835 C265.695564,248.291854 266.73999,251.49667 268.828843,253.900282 C270.917696,256.303893 273.421459,258.049373 276.34013,259.136722 C279.258801,260.22407 283.007291,261.311418 287.585599,262.398766 C290.5615,263.085512 292.92219,263.71503 294.66767,264.287318 C296.41315,264.859607 297.843871,265.617889 298.959834,266.562165 C300.075796,267.506441 300.633778,268.69394 300.633778,270.124661 C300.633778,272.070442 299.689502,273.629928 297.800949,274.80312 C295.912397,275.976311 292.993726,276.562907 289.044935,276.562907 C285.496746,276.562907 281.948558,275.990618 278.400369,274.846041 C274.85218,273.701464 271.790436,272.1849 269.215138,270.296348 L269.215138,270.296348 L264.493758,280.769228 C267.183514,282.829466 270.74601,284.50341 275.181246,285.791059 C279.616482,287.078708 284.209097,287.722533 288.959092,287.722533 Z M349.411836,286.692414 L354.734119,273.815922 L382.633184,273.815922 L387.955467,286.692414 L402.548825,286.692414 L375.679879,226.602119 L361.944954,226.602119 L335.161852,286.692414 L349.411836,286.692414 Z M378.255177,263.257199 L359.197969,263.257199 L368.726573,240.2512 L378.255177,263.257199 Z M441.798279,286.692414 L441.798279,269.952975 L454.588927,269.952975 L466.17777,286.692414 L481.1145,286.692414 L467.637105,267.377676 C471.585896,265.660811 474.633333,263.185663 476.779414,259.952233 C478.925496,256.718803 479.998537,252.870162 479.998537,248.406312 C479.998537,243.942461 478.939804,240.079514 476.822336,236.817469 C474.704869,233.555425 471.686047,231.037355 467.76587,229.263261 C463.845694,227.489167 459.224464,226.602119 453.902181,226.602119 L453.902181,226.602119 L427.891668,226.602119 L427.891668,286.692414 L441.798279,286.692414 Z M453.129591,258.879192 L441.798279,258.879192 L441.798279,237.933432 L453.129591,237.933432 C457.307298,237.933432 460.483499,238.834786 462.658195,240.637495 C464.832892,242.440204 465.92024,245.02981 465.92024,248.406312 C465.92024,251.725585 464.832892,254.300884 462.658195,256.132207 C460.483499,257.96353 457.307298,258.879192 453.129591,258.879192 L453.129591,258.879192 Z" id="PULSAR" fill="#4BD1A0" fill-rule="nonzero"></path>
    </g>
</svg>