<?xml version="1.0" encoding="utf-8"?>
<!-- Generator: Adobe Illustrator 23.0.0, SVG Export Plug-In . SVG Version: 6.00 Build 0)  -->
<svg version="1.1" id="Layer_1" xmlns="http://www.w3.org/2000/svg" xmlns:xlink="http://www.w3.org/1999/xlink" x="0px" y="0px"
	 viewBox="0 0 49 43" style="enable-background:new 0 0 49 43;" xml:space="preserve">
<style type="text/css">
	.st0{clip-path:url(#SVGID_2_);}
	.st1{fill-rule:evenodd;clip-rule:evenodd;fill:#FFFFFF;}
	.st2{fill-rule:evenodd;clip-rule:evenodd;fill:url(#SVGID_3_);}
	.st3{fill-rule:evenodd;clip-rule:evenodd;fill:url(#SVGID_4_);}
</style>
<g>
	<defs>
		<rect id="SVGID_1_" width="49" height="43"/>
	</defs>
	<clipPath id="SVGID_2_">
		<use xlink:href="#SVGID_1_"  style="overflow:visible;"/>
	</clipPath>
	<g class="st0">
			<linearGradient id="SVGID_3_" gradientUnits="userSpaceOnUse" x1="16.1793" y1="33.3412" x2="9.877" y2="11.8128" gradientTransform="matrix(1 0 0 -1 0 44)">
			<stop  offset="0" style="stop-color:#008FD8"/>
			<stop  offset="3.000000e-02" style="stop-color:#0094DB"/>
			<stop  offset="0.18" style="stop-color:#00A7E7"/>
			<stop  offset="0.36" style="stop-color:#00B5EF"/>
			<stop  offset="0.59" style="stop-color:#00BDF4"/>
			<stop  offset="1" style="stop-color:#00BFF5"/>
		</linearGradient>
		<path class="st2" d="M26.9,21.5c0-2.7-6.1-8.3-12.1-11.6c-0.8,1.3-1.4,2.6-1.8,4c4,2.2,7.8,5.8,7.8,7.6c0,2.7-9.1,9.7-13.5,9.7
			c-3.1,0-4.7-6.1-4.7-9.7s1.6-9.7,4.7-9.7c0.6,0,1.2,0.1,1.8,0.3c0.4-1.4,0.8-2.8,1.3-4.2C9.4,7.5,8.2,7.2,7,7.2
			c-4.6,0-7,9.1-7,14.3s2.4,14.3,7,14.3C13.5,35.8,26.9,25.5,26.9,21.5z"/>
		
		<linearGradient id="SVGID_4_" gradientUnits="userSpaceOnUse" x1="12.2273" y1="16.4016" x2="35.7917" y2="33.0793" gradientTransform="matrix(1 0 0 -1 0 44)">
			<stop  offset="0" style="stop-color:#0115B6"/>
			<stop  offset="1" style="stop-color:#006EE8"/>
		</linearGradient>
		<path class="st3" d="M7.9,21.5c0,3.2,0.5,6.3,1.2,9.4c1.4-0.4,2.7-1,3.9-1.8c-0.8-2.5-1.1-5-1.1-7.6c0-4,1-9.1,3.5-12.4
			C16.4,7.8,17.6,7,19,7c6.6,0,20.3,10.5,20.3,14.5S25.6,36,19,36c-1.4,0-2.6-0.8-3.6-2.2c-0.2-0.2-0.4-0.5-0.5-0.8
			c-1.4,0.8-2.9,1.5-4.4,2c1.8,4.4,4.4,7.9,7.9,7.9c9.8,0,30-15.5,30-21.5S28.1,0,18.3,0C11.5,0,7.9,13.6,7.9,21.5z"/>
	</g>
</g>
</svg>
