<?xml version="1.0" encoding="UTF-8"?>
<svg width="762px" height="107px" viewBox="0 0 762 107" version="1.1" xmlns="http://www.w3.org/2000/svg" xmlns:xlink="http://www.w3.org/1999/xlink">
    <!-- Generator: Sketch 41 (35326) - http://www.bohemiancoding.com/sketch -->
    <defs></defs>
    <g id="Page-1" stroke="none" stroke-width="1" fill="none" fill-rule="evenodd">
        <g id="Artboard" fill="#FFFFFF">
            <g id="microsoft-azure-2">
                <g id="Group">
                    <path d="M0.5,15.075 L43.946,9.103 L43.946,51.027 L0.504,51.027 L0.5,15.075 Z M43.946,56.392 L43.946,97.842 L0.506,91.879 L0.505,56.394 L43.947,56.394 L43.947,56.392 L43.946,56.392 Z M48.75,8.444 L106.56,0.497 L106.56,51.027 L48.75,51.027 L48.75,8.444 Z M106.56,56.392 L106.56,106.441 L48.75,98.5 L48.75,56.392 L106.56,56.392 Z" id="Shape"></path>
                    <g transform="translate(139.000000, 20.000000)" id="Shape">
                        <path d="M65.703,64.786 L55.66,64.786 L55.66,25.955 C55.66,22.772 55.859,18.885 56.256,14.278 L56.088,14.278 C55.461,16.9 54.908,18.782 54.428,19.93 L36.216,64.786 L29.237,64.786 L10.981,20.266 C10.471,18.956 9.931,16.96 9.365,14.283 L9.197,14.283 C9.426,16.683 9.538,20.601 9.538,26.04 L9.538,64.786 L0.175,64.786 L0.175,4.782 L14.43,4.782 L30.473,44.744 C31.692,47.812 32.487,50.102 32.854,51.606 L33.066,51.606 C34.116,48.453 34.966,46.108 35.619,44.574 L51.961,4.782 L65.706,4.782 L65.702,64.786 L65.703,64.786 Z M84.555,12.94 C82.939,12.94 81.552,12.426 80.407,11.393 C79.257,10.361 78.683,9.048 78.683,7.459 C78.683,5.87 79.257,4.544 80.407,3.482 C81.557,2.424 82.939,1.892 84.555,1.892 C86.227,1.892 87.649,2.424 88.811,3.482 C89.973,4.544 90.557,5.865 90.557,7.459 C90.557,8.963 89.973,10.255 88.811,11.329 C87.644,12.405 86.227,12.94 84.555,12.94 Z M89.446,64.786 L79.577,64.786 L79.577,21.936 L89.447,21.936 L89.447,64.786 L89.446,64.786 Z M133.576,62.819 C130.089,64.799 125.958,65.789 121.192,65.789 C114.724,65.789 109.504,63.801 105.532,59.828 C101.562,55.855 99.574,50.701 99.574,44.366 C99.574,37.308 101.709,31.64 105.978,27.356 C110.248,23.074 115.955,20.932 123.106,20.932 C127.077,20.932 130.581,21.616 133.615,22.985 L133.615,32.022 C130.577,29.792 127.345,28.674 123.915,28.674 C119.745,28.674 116.327,30.064 113.661,32.838 C110.995,35.613 109.659,39.246 109.659,43.737 C109.659,48.173 110.912,51.674 113.423,54.24 C115.933,56.807 119.303,58.09 123.53,58.09 C127.077,58.09 130.421,56.85 133.571,54.368 L133.576,62.819 L133.576,62.819 Z M168.679,31.185 C167.486,30.263 165.771,29.805 163.529,29.805 C160.607,29.805 158.166,31.1 156.209,33.696 C154.251,36.288 153.271,39.819 153.271,44.281 L153.271,64.786 L143.397,64.786 L143.397,21.936 L153.271,21.936 L153.271,30.765 L153.439,30.765 C154.403,27.752 155.885,25.402 157.885,23.715 C159.885,22.029 162.12,21.183 164.587,21.183 C166.376,21.183 167.737,21.451 168.675,21.978 L168.679,31.185 L168.679,31.185 Z M195.062,65.789 C188.339,65.789 182.972,63.788 178.954,59.785 C174.94,55.783 172.931,50.475 172.931,43.865 C172.931,36.666 175.022,31.045 179.209,27 C183.396,22.955 189.03,20.932 196.125,20.932 C202.935,20.932 208.237,22.9 212.039,26.834 C215.842,30.769 217.739,36.22 217.739,43.193 C217.739,50.03 215.691,55.503 211.59,59.615 C207.494,63.733 201.985,65.789 195.062,65.789 L195.062,65.789 Z M195.529,28.674 C191.671,28.674 188.62,30 186.382,32.647 C184.139,35.298 183.02,38.952 183.02,43.609 C183.02,48.1 184.156,51.636 186.425,54.215 C188.693,56.794 191.731,58.085 195.533,58.085 C199.423,58.085 202.408,56.815 204.491,54.279 C206.573,51.738 207.619,48.126 207.619,43.439 C207.619,38.727 206.578,35.086 204.491,32.519 C202.404,29.957 199.418,28.674 195.529,28.674 L195.529,28.674 Z M225.106,63.448 L225.106,54.453 C228.796,57.215 232.866,58.595 237.316,58.595 C243.276,58.595 246.252,56.866 246.252,53.407 C246.252,52.43 245.998,51.602 245.488,50.917 C244.978,50.233 244.291,49.626 243.422,49.099 C242.553,48.572 241.534,48.096 240.359,47.676 C239.179,47.255 237.869,46.783 236.422,46.252 C234.766602,45.6158209 233.153345,44.874992 231.592,44.034 C230.157,43.252 228.969,42.369 228.018,41.379 C227.081532,40.4126288 226.3511,39.2661198 225.871,38.009 C225.387,36.756 225.149,35.289 225.149,33.616 C225.149,31.551 225.646,29.732 226.639,28.156 C227.634,26.579 228.964,25.254 230.637,24.183 C232.313,23.108 234.21,22.301 236.34,21.757 C238.495075,21.2095087 240.710475,20.9353555 242.934,20.941 C246.961,20.941 250.564,21.54 253.741,22.738 L253.741,31.232 C250.677,29.167 247.16,28.134 243.189,28.134 C241.94,28.134 240.812,28.262 239.806,28.508 C238.799,28.759 237.939,29.108 237.23,29.554 C236.522,30 235.969,30.535 235.571,31.164 C235.176461,31.7819023 234.969445,32.5009015 234.975,33.234 C234.975,34.155 235.174,34.937 235.571,35.579 C235.969,36.22 236.556,36.785 237.338,37.274 C238.116,37.763 239.054,38.209 240.147,38.612 C241.24,39.016 242.493,39.458 243.915,39.93 C245.633117,40.6128791 247.315898,41.3815116 248.957,42.233 C250.448,43.014 251.718,43.898 252.768,44.888 C253.802051,45.8547125 254.627022,47.0230805 255.192,48.321 C255.759,49.617 256.044,51.16 256.044,52.944 C256.044,55.12 255.534,57.014 254.51,58.634 C253.49,60.253 252.125,61.591 250.427,62.649 C248.724,63.711 246.758,64.497 244.533,65.011 C242.303,65.53 239.957,65.785 237.49,65.785 C232.72,65.789 228.593,65.011 225.106,63.448 L225.106,63.448 Z M284.765,65.789 C278.042,65.789 272.671,63.788 268.656,59.785 C264.642,55.783 262.637,50.475 262.637,43.865 C262.637,36.666 264.729,31.045 268.916,27 C273.098,22.955 278.737,20.932 285.828,20.932 C292.638,20.932 297.939,22.9 301.742,26.834 C305.544,30.769 307.445,36.22 307.445,43.193 C307.445,50.03 305.397,55.503 301.297,59.615 C297.197,63.733 291.683,65.789 284.765,65.789 L284.765,65.789 Z M285.232,28.674 C281.373,28.674 278.322,30 276.08,32.647 C273.837,35.298 272.718,38.952 272.718,43.609 C272.718,48.1 273.855,51.636 276.123,54.215 C278.392,56.794 281.429,58.085 285.232,58.085 C289.116,58.085 292.102,56.815 294.189,54.279 C296.276,51.738 297.317,48.126 297.317,43.439 C297.317,38.727 296.276,35.086 294.189,32.519 C292.102,29.957 289.116,28.674 285.232,28.674 L285.232,28.674 Z M342.168,9.26 C340.838,8.508 339.317,8.13 337.614,8.13 C332.818,8.13 330.424,10.794 330.424,16.122 L330.424,21.939 L340.552,21.939 L340.552,29.554 L330.467,29.554 L330.467,64.786 L320.594,64.786 L320.594,29.554 L313.149,29.554 L313.149,21.939 L320.594,21.939 L320.594,14.992 C320.594,10.472 322.098,6.911 325.105,4.302 C328.112,1.692 331.872,0.388 336.383,0.388 C338.824,0.388 340.751,0.652 342.168,1.183 L342.168,9.26 L342.168,9.26 Z M370.635,64.327 C368.708,65.275 366.167,65.751 363.017,65.751 C354.565,65.751 350.339,61.761 350.339,53.786 L350.339,29.558 L343.063,29.558 L343.063,21.944 L350.339,21.944 L350.339,12.026 L360.213,9.265 L360.213,21.944 L370.639,21.944 L370.639,29.558 L360.213,29.558 L360.213,50.98 C360.213,53.517 360.679,55.331 361.617,56.419 C362.555,57.507 364.114,58.051 366.297,58.051 C367.969,58.051 369.417,57.579 370.635,56.627 L370.635,64.327 L370.635,64.327 Z M454.379,64.786 L443.274,64.786 L437.786,49.511 L413.788,49.511 L408.512,64.786 L397.446,64.786 L420.295,4.782 L431.698,4.782 L454.378,64.786 L454.379,64.786 Z M435.103,41.396 L426.638,17.461 C426.383,16.679 426.111,15.426 425.83,13.696 L425.662,13.696 C425.407,15.286 425.122,16.543 424.81,17.461 L416.428,41.396 L435.103,41.396 Z M493.867,25.997 L470.336,57.21 L493.781,57.21 L493.781,64.786 L456.504,64.786 L456.504,61.145 L480.546,29.511 L458.803,29.511 L458.803,21.935 L493.867,21.935 L493.867,25.997 L493.867,25.997 Z M540.205,64.786 L530.336,64.786 L530.336,58.005 L530.168,58.005 C527.303,63.193 522.848,65.789 516.808,65.789 C506.51,65.789 501.36,59.709 501.36,47.544 L501.36,21.935 L511.233,21.935 L511.233,46.541 C511.233,54.241 514.253,58.09 520.299,58.09 C523.219,58.09 525.622,57.032 527.51,54.912 C529.398,52.792 530.34,50.017 530.34,46.584 L530.34,21.935 L540.214,21.935 L540.205,64.786 L540.205,64.786 Z M578.376,31.185 C577.184,30.263 575.468,29.805 573.226,29.805 C570.305,29.805 567.863,31.1 565.906,33.696 C563.949,36.288 562.968,39.819 562.968,44.281 L562.968,64.786 L553.098,64.786 L553.098,21.936 L562.968,21.936 L562.968,30.765 L563.136,30.765 C564.1,27.752 565.582,25.402 567.582,23.715 C569.583,22.029 571.817,21.183 574.284,21.183 C576.069,21.183 577.434,21.451 578.367,21.978 L578.377,31.185 L578.376,31.185 Z M622.333,45.997 L592.63,45.997 C592.742,49.957 593.982,53.012 596.354,55.162 C598.722,57.308 601.976,58.383 606.12,58.383 C610.773,58.383 615.042,57.015 618.927,54.283 L618.927,62.105 C614.957,64.561 609.707,65.789 603.182,65.789 C596.769,65.789 591.744,63.843 588.097,59.951 C584.45,56.059 582.631,50.586 582.631,43.529 C582.631,36.862 584.636,31.427 588.655,27.229 C592.669,23.031 597.655,20.932 603.614,20.932 C609.572,20.932 614.178,22.815 617.441,26.579 C620.703,30.344 622.336,35.574 622.336,42.271 L622.332,45.997 L622.333,45.997 Z M612.801,39.135 C612.758,35.647 611.937,32.935 610.291,30.998 C608.644,29.061 606.376,28.092 603.481,28.092 C600.646,28.092 598.239,29.112 596.269,31.147 C594.299,33.182 593.085,35.847 592.631,39.139 L612.801,39.139 L612.801,39.135 Z"></path>
                    </g>
                </g>
            </g>
        </g>
    </g>
</svg>
