<?xml version="1.0" encoding="UTF-8"?>
<svg width="256px" height="256px" viewBox="0 0 256 256" version="1.1" xmlns="http://www.w3.org/2000/svg" xmlns:xlink="http://www.w3.org/1999/xlink">
    <title>spot</title>
    <g id="spot" stroke="none" stroke-width="1" fill="none" fill-rule="evenodd">
        <rect fill="#F3FD00" x="0" y="0" width="256" height="256"></rect>
        <g transform="translate(16.000000, 90.900000)" fill="#111820" fill-rule="nonzero" id="Shape">
            <path d="M152.760417,59.2708333 C144.947917,59.2708333 139.0625,54.1145833 139.0625,46.40625 L139.0625,25.8333333 L132.1875,25.8333333 L132.1875,16.4583333 L139.0625,16.4583333 L139.0625,6.19791667 L149.53125,6.19791667 L149.53125,16.4583333 L159.427083,16.4583333 L159.427083,25.8333333 L149.53125,25.8333333 L149.53125,46.40625 C149.53125,48.6458333 150.520833,49.8958333 152.760417,49.8958333 L159.375,49.8958333 L159.375,59.2708333 L152.760417,59.2708333 M133.020833,38.125 C133.020833,52.7083333 121.927083,60.4166667 110.520833,60.4166667 C99.0625,60.4166667 87.96875,52.7083333 87.96875,38.125 C87.96875,23.4375 99.0625,15.7291667 110.520833,15.7291667 C121.927083,15.7291667 133.020833,23.4375 133.020833,38.125 Z M122.1875,38.125 C122.1875,30.1041667 117.291667,25.5208333 110.572917,25.5208333 C103.75,25.5208333 98.8541667,30.1041667 98.8541667,38.125 C98.8541667,46.09375 103.75,50.625 110.572917,50.625 C117.291667,50.625 122.1875,46.09375 122.1875,38.125 Z M85.9375,38.125 C85.9375,52.7083333 76.1458333,60.4166667 65.9375,60.4166667 C59.9479167,60.4166667 55.0520833,58.28125 51.8229167,54.21875 L51.8229167,75.0520833 L41.40625,75.0520833 L41.40625,16.4583333 L51.875,16.4583333 L51.875,22.03125 C55.1041667,17.8645833 60,15.7291667 65.9895833,15.7291667 C76.1458333,15.7291667 85.9375,23.4375 85.9375,38.125 Z M75.0520833,38.125 C75.0520833,30.1041667 70.2604167,25.5208333 63.4375,25.5208333 C56.6145833,25.5208333 51.8229167,30.1041667 51.8229167,38.125 C51.8229167,46.09375 56.6145833,50.625 63.4375,50.625 C70.2604167,50.625 75.0520833,46.09375 75.0520833,38.125 Z M20.2604167,60.4166667 C29.7916667,60.4166667 38.75,53.125 38.75,42.65625 C38.75,20.2604167 12.4479167,28.6458333 12.4479167,16.71875 C12.4479167,13.2291667 14.9479167,10.6770833 18.90625,10.6770833 C22.8645833,10.6770833 25.3125,12.65625 26.3541667,16.4583333 L38.0729167,16.4583333 C35.9895833,5.36458333 28.59375,0.0520833333 18.90625,0.0520833333 C9.79166667,0.0520833333 1.09375,6.51041667 1.09375,16.9791667 C1.09375,39.21875 27.3958333,30.6770833 27.3958333,42.9166667 C27.3958333,46.5625 24.7395833,49.7916667 20.2604167,49.7916667 C15.625,49.7916667 12.7083333,47.2916667 11.71875,43.1770833 L0,43.1770833 C1.92708333,54.1145833 9.375,60.4166667 20.2604167,60.4166667 M194.791667,60.4166667 C211.458333,60.4166667 225,46.875 225,30.2083333 C225,13.5416667 211.458333,0 194.791667,0 C178.125,0 164.583333,13.5416667 164.583333,30.2083333 C164.635417,46.9270833 178.125,60.4166667 194.791667,60.4166667"></path>
        </g>
    </g>
</svg>