<?xml version="1.0" encoding="UTF-8"?>
<svg width="200px" height="200px" viewBox="0 0 200 200" version="1.1" xmlns="http://www.w3.org/2000/svg" xmlns:xlink="http://www.w3.org/1999/xlink">
    <title>spot</title>
    <g id="spot" stroke="none" stroke-width="1" fill="none" fill-rule="evenodd">
        <g transform="translate(14.000000, 76.000000)" fill="#000000" fill-rule="nonzero">
            <path d="M110.538,21.8645737 L112.652,21.8645737 L112.652,18.5712737 L110.538,18.5712737 C109.755,18.5712737 109.407,18.1346737 109.407,17.3496737 L109.407,10.2970737 L112.853,10.2970737 L112.853,7.01343369 L109.407,7.01343369 L109.407,3.26074369 L105.757,3.26074369 L105.757,7.00692369 L103.354,7.00692369 L103.354,10.2970737 L105.757,10.2970737 L105.757,17.3593737 C105.757,20.0631737 107.813,21.8645737 110.538,21.8645737 Z M92.0811,14.4536737 C92.0811,11.6358737 93.7926,10.0364737 96.1667,10.0364737 C98.5407,10.0364737 100.223,11.6358737 100.223,14.4536737 C100.223,17.2714737 98.5148,18.8415737 96.1667,18.8415737 C93.8186,18.8415737 92.0811,17.2421737 92.0811,14.4536737 Z M96.1667,22.2717737 C100.135,22.2717737 104.02,19.5680737 104.02,14.4536737 C104.02,9.33932369 100.122,6.60624369 96.1667,6.60624369 C92.211,6.60624369 88.2879,9.31001369 88.2879,14.4536737 C88.2879,19.5973737 92.1688,22.2717737 96.1667,22.2717737 Z M75.7064,14.4536737 C75.7064,11.6358737 77.3887,10.0364737 79.7627,10.0364737 C82.1368,10.0364737 83.8191,11.6358737 83.8191,14.4536737 C83.8191,17.2714737 82.14,18.8415737 79.7627,18.8415737 C77.3854,18.8415737 75.7064,17.2421737 75.7064,14.4536737 Z M80.6331,22.2717737 C84.2055,22.2717737 87.6156,19.5680737 87.6156,14.4536737 C87.6156,9.33932369 84.1958,6.60624369 80.6331,6.60624369 C78.5448,6.60624369 76.8366,7.36199369 75.7064,8.81486369 L75.7064,7.01343369 L72.0625,7.01343369 L72.0625,27.3861737 L75.7129,27.3861737 L75.7129,20.0924737 C76.8431,21.5160737 78.5513,22.2717737 80.6396,22.2717737 L80.6331,22.2717737 Z M64.765,22.2717737 C68.0939,22.2717737 71.2246,19.7146737 71.2246,16.0531737 C71.2246,8.20570369 62.0402,11.1407737 62.0402,6.95480369 C62.0402,5.73647369 62.9106,4.83413369 64.3136,4.83413369 C65.7166,4.83413369 66.5447,5.53125369 66.9117,6.87010369 L70.994,6.87010369 C70.2698,2.96104369 67.6944,1.11401369 64.3038,1.11401369 C61.1179,1.11401369 58.0748,3.39430369 58.0748,7.04275369 C58.0748,14.8315737 67.2592,11.8378737 67.2592,16.1378737 C67.265,16.4636737 67.2039,16.7871737 67.0796,17.0882737 C66.9554,17.3893737 66.7707,17.6616737 66.537,17.8880737 C66.3034,18.1144737 66.0258,18.2902737 65.7215,18.4044737 C65.4172,18.5185737 65.0927,18.5686737 64.7682,18.5516737 C63.1444,18.5516737 62.1311,17.6786737 61.7836,16.2257737 L57.6948,16.2257737 C58.3444,20.0631737 60.9685,22.2717737 64.765,22.2717737 Z" id="Shape"></path>
            <path d="M23.9256,48.0032739 C28.6584,48.0038737 33.2851,46.5967737 37.2206,43.9598737 C41.1561,41.3228737 44.2236,37.5745737 46.0352,33.1888737 C47.8468,28.8032737 48.3212,23.9772737 47.3982,19.3211737 C46.4753,14.6650737 44.1966,10.3880737 40.8502,7.03107369 C37.5038,3.67406369 33.2401,1.38780369 28.5983,0.461433689 C23.9565,-0.464938311 19.145,0.0101834294 14.7724,1.82671369 C10.3998,3.64324369 6.66243,6.71959369 4.03296,10.6666737 C1.40348,14.6138737 0,19.2544737 0,24.0016737 C0,30.3666737 2.52062,36.4710737 7.00744,40.9721737 C11.4943,45.4732737 17.5798,48.0023737 23.9256,48.0032739 Z" id="Path"></path>
            <path d="M161.792,37.3965737 C162.253,35.1716737 163.809,34.0738737 165.566,34.0738737 C167.122,34.0738737 168.814,34.9696737 169.168,37.3965737 L161.792,37.3965737 Z M165.712,46.6740737 C168.505,46.6740737 171.444,45.2277737 172.711,42.2535737 L168.505,42.2535737 C167.93,43.0028737 167.008,43.4067737 165.712,43.4067737 C163.809,43.4067737 162.14,42.3382737 161.734,39.9993737 L173,39.9993737 L173,38.8722737 C173,33.7253737 169.255,31.0964737 165.566,31.0964737 C161.822,31.0964737 158.132,33.7839737 158.132,38.9145737 C158.132,44.0452737 161.909,46.6903737 165.712,46.6903737 L165.712,46.6740737 Z M150.627,46.6903737 C153.767,46.6903737 156.853,44.8400737 157.772,41.0547737 L153.797,41.0547737 C153.192,42.5565737 152.069,43.2797737 150.627,43.2797737 C148.467,43.2797737 146.941,41.6900737 146.941,38.9145737 C146.941,36.1391737 148.467,34.5234737 150.627,34.5234737 C151.285,34.4971737 151.936,34.6692737 152.496,35.0176737 C153.056,35.3660737 153.498,35.8746737 153.767,36.4779737 L157.746,36.4779737 C156.736,32.8653737 153.683,31.1029737 150.627,31.1029737 C146.853,31.1029737 143.157,33.7904737 143.157,38.9211737 C143.157,44.0517737 146.843,46.6968737 150.627,46.6968737 L150.627,46.6903737 Z M138.562,38.0839737 L138.562,46.2603737 L142.193,46.2603737 L142.193,37.2532737 C142.193,33.2627737 140,31.0964464 136.775,31.0964464 C135.858,31.0936737 134.952,31.3067737 134.132,31.7186737 C133.311,32.1304737 132.598,32.7296737 132.05,33.4679737 L132.05,31.5134737 L128.419,31.5134737 L128.419,46.2603737 L132.05,46.2603737 L132.05,38.0513737 C132.05,35.5951737 133.719,34.4973737 135.564,34.4973737 C137.321,34.4973737 138.562,35.5951737 138.562,38.0513737 L138.562,38.0839737 Z M118.611,41.9929737 C118.611,41.2404737 119.072,40.7192737 120.082,40.4326737 L123.596,39.5074737 L123.596,40.8658737 C123.596,42.4946737 122.154,43.5826737 120.456,43.5826737 C119.362,43.5826737 118.611,43.0614737 118.611,41.9929737 Z M119.621,46.6740737 C121.148,46.6740737 122.645,46.1235737 123.596,44.9410737 L123.596,46.2603737 L127.227,46.2603737 L127.227,36.0381737 C127.227,33.0607737 125.123,31.0964737 121.55,31.0964737 C118.121,31.0964737 115.643,32.9467737 115.127,36.3085737 L119.043,36.3085737 C119.368,34.9501737 120.427,34.5168737 121.55,34.5168737 C122.817,34.5168737 123.596,35.1684737 123.596,36.0479737 L123.596,36.5691737 L119.332,37.6962737 C116.409,38.4748737 114.98,39.8332737 114.98,42.2894737 C114.98,45.1234737 116.913,46.6838737 119.621,46.6838737 L119.621,46.6740737 Z M110.239,33.5917737 C110.245,34.0704737 110.391,34.5367737 110.661,34.9319737 C110.93,35.3271737 111.31,35.6336737 111.752,35.8128737 C112.195,35.9920737 112.681,36.0359737 113.148,35.9390737 C113.615,35.8421737 114.044,35.6087737 114.379,35.2681737 C114.715,34.9276737 114.942,34.4951737 115.033,34.0252737 C115.124,33.5552737 115.075,33.0688737 114.891,32.6270737 C114.707,32.1853737 114.397,31.8080737 113.999,31.5426737 C113.602,31.2772737 113.136,31.1355737 112.658,31.1355737 C112.338,31.1359737 112.021,31.1999737 111.726,31.3239737 C111.431,31.4478737 111.163,31.6292737 110.938,31.8576737 C110.713,32.0860737 110.535,32.3568737 110.415,32.6545737 C110.295,32.9521737 110.235,33.2707737 110.239,33.5917737 Z M106.176,46.2961737 L109.804,46.2961737 L109.804,31.5004737 L106.176,31.5004737 L106.176,46.2961737 Z M96.5304,46.7001738 C97.45,46.7003737 98.3567,46.4837737 99.1775,46.0678737 C99.9983,45.6519737 100.71,45.0483737 101.256,44.3058737 L101.256,46.2603737 L104.9,46.2603737 L104.9,31.5004737 L101.256,31.5004737 L101.256,39.7452737 C101.256,42.1721737 99.5865,43.2699737 97.7418,43.2699737 C95.9848,43.2699737 94.7442,42.1721737 94.7442,39.7452737 L94.7442,31.5004737 L91.1133,31.5004737 L91.1133,40.5173737 C91.1133,44.5078737 93.3022,46.6740737 96.5304,46.6740737 L96.5304,46.7001738 Z M84.6342,46.6740737 C87.7455,46.6740737 90.1942,44.6511737 90.1942,41.8756737 C90.1942,35.8068737 82.6759,38.4650737 82.6759,35.6635737 C82.6759,34.8263737 83.3968,34.3051737 84.3451,34.3051737 C84.7326,34.2718737 85.1196,34.3743737 85.44,34.5954737 C85.7605,34.8164737 85.9945,35.1421737 86.1021,35.5169737 L89.8499,35.5169737 C89.5252,32.7741737 87.3135,31.0964737 84.3289,31.0964737 C81.3443,31.0964737 78.9183,33.0053737 78.9183,35.8362737 C78.9183,41.8463737 86.4366,39.1882737 86.4366,42.0483737 C86.4366,42.9181737 85.7157,43.4947737 84.6504,43.4947737 C83.6437,43.4947737 82.8058,43.0321737 82.5459,41.9050737 L78.8144,41.9050737 C79.1034,44.9964737 81.6074,46.6740737 84.6342,46.6740737 Z M74.1442,38.0611737 L74.1442,46.2603737 L77.7751,46.2603737 L77.7751,37.2532737 C77.7751,33.2627737 75.5829,31.0964464 72.358,31.0964464 C71.4404,31.0936737 70.5348,31.3067737 69.7142,31.7186737 C68.8935,32.1304737 68.1806,32.7296737 67.6327,33.4679737 L67.6327,31.5134737 L64.0018,31.5134737 L64.0018,46.2603737 L67.6327,46.2603737 L67.6327,38.0513737 C67.6327,35.5951737 69.302,34.4973737 71.1466,34.4973737 C72.9036,34.4973737 74.1442,35.5951737 74.1442,38.0513737 L74.1442,38.0611737 Z M58.8185,46.2603737 L62.6215,46.2603737 L62.6215,26.0407737 L58.8185,26.0407737 L58.8185,46.2603737 Z" id="Shape"></path>
        </g>
    </g>
</svg>