<?xml version="1.0" encoding="UTF-8"?>
<svg width="1024px" height="1024px" viewBox="0 0 1024 1024" version="1.1" xmlns="http://www.w3.org/2000/svg" xmlns:xlink="http://www.w3.org/1999/xlink">
    <!-- Generator: Sketch 52.5 (67469) - http://www.bohemiancoding.com/sketch -->
    <title>Artboard Copy</title>
    <desc>Created with Sketch.</desc>
    <g id="Artboard-Copy" stroke="none" stroke-width="1" fill="none" fill-rule="evenodd">
        <g id="logo" transform="translate(122.000000, 62.000000)">
            <ellipse id="Oval" fill="#00FFFF" cx="134.608701" cy="139.298507" rx="128.14536" ry="127.880597"></ellipse>
            <ellipse id="Oval" fill="#00FEFF" cx="134.608701" cy="139.455224" rx="128.302401" ry="128.037313"></ellipse>
            <ellipse id="Oval" fill="#00FDFF" cx="134.608701" cy="139.768657" rx="128.302401" ry="128.037313"></ellipse>
            <ellipse id="Oval" fill="#00FCFF" cx="134.608701" cy="140.395523" rx="128.302401" ry="128.037313"></ellipse>
            <ellipse id="Oval" fill="#00FBFF" cx="134.608701" cy="141.179104" rx="128.302401" ry="128.037313"></ellipse>
            <ellipse id="Oval" fill="#00FAFF" cx="134.608701" cy="142.27612" rx="128.459442" ry="128.19403"></ellipse>
            <ellipse id="Oval" fill="#00F9FF" cx="134.608701" cy="143.529851" rx="128.459442" ry="128.19403"></ellipse>
            <ellipse id="Oval" fill="#00F8FF" cx="134.608701" cy="144.940299" rx="128.459442" ry="128.19403"></ellipse>
            <ellipse id="Oval" fill="#00F7FF" cx="134.608701" cy="146.664179" rx="128.616483" ry="128.350746"></ellipse>
            <ellipse id="Oval" fill="#00F6FF" cx="134.608701" cy="148.544776" rx="128.616483" ry="128.350746"></ellipse>
            <ellipse id="Oval" fill="#00F5FF" cx="134.608701" cy="150.58209" rx="128.616483" ry="128.350746"></ellipse>
            <ellipse id="Oval" fill="#00F4FF" cx="134.608701" cy="152.932836" rx="128.616483" ry="128.350746"></ellipse>
            <ellipse id="Oval" fill="#00F3FF" cx="134.608701" cy="155.440299" rx="128.773524" ry="128.507463"></ellipse>
            <ellipse id="Oval" fill="#00F2FF" cx="134.608701" cy="158.104478" rx="128.773524" ry="128.507463"></ellipse>
            <ellipse id="Oval" fill="#00F1FF" cx="134.608701" cy="160.925373" rx="128.773524" ry="128.507463"></ellipse>
            <ellipse id="Oval" fill="#00F0FF" cx="134.608701" cy="163.902986" rx="128.773524" ry="128.507463"></ellipse>
            <ellipse id="Oval" fill="#00EFFF" cx="134.608701" cy="167.037313" rx="128.930565" ry="128.664179"></ellipse>
            <ellipse id="Oval" fill="#00EEFF" cx="134.608701" cy="170.328358" rx="128.930565" ry="128.664179"></ellipse>
            <ellipse id="Oval" fill="#00EDFF" cx="134.608701" cy="173.932835" rx="128.930565" ry="128.664179"></ellipse>
            <ellipse id="Oval" fill="#00ECFF" cx="134.608701" cy="177.537314" rx="128.930565" ry="128.664179"></ellipse>
            <ellipse id="Oval" fill="#00EBFF" cx="134.608701" cy="181.455223" rx="129.087605" ry="128.820896"></ellipse>
            <ellipse id="Oval" fill="#00EAFF" cx="134.608701" cy="185.373134" rx="129.087605" ry="128.820896"></ellipse>
            <ellipse id="Oval" fill="#00E9FF" cx="134.608701" cy="189.447761" rx="129.087605" ry="128.820896"></ellipse>
            <ellipse id="Oval" fill="#00E8FF" cx="134.608701" cy="193.679104" rx="129.087605" ry="128.820896"></ellipse>
            <ellipse id="Oval" fill="#00E7FF" cx="134.608701" cy="198.067164" rx="129.244646" ry="128.977612"></ellipse>
            <ellipse id="Oval" fill="#00E6FF" cx="134.608701" cy="202.61194" rx="129.244646" ry="128.977612"></ellipse>
            <ellipse id="Oval" fill="#00E5FF" cx="134.608701" cy="207.156717" rx="129.244646" ry="128.977612"></ellipse>
            <ellipse id="Oval" fill="#00E4FF" cx="134.608701" cy="211.858209" rx="129.401687" ry="129.134328"></ellipse>
            <ellipse id="Oval" fill="#00E3FF" cx="134.608701" cy="216.716417" rx="129.401687" ry="129.134328"></ellipse>
            <ellipse id="Oval" fill="#00E2FF" cx="134.608701" cy="221.731344" rx="129.401687" ry="129.134328"></ellipse>
            <ellipse id="Oval" fill="#00E1FF" cx="134.608701" cy="226.746269" rx="129.401687" ry="129.134328"></ellipse>
            <ellipse id="Oval" fill="#00E0FF" cx="134.608701" cy="231.91791" rx="129.558728" ry="129.291045"></ellipse>
            <ellipse id="Oval" fill="#00DFFF" cx="134.608701" cy="237.246269" rx="129.558728" ry="129.291045"></ellipse>
            <ellipse id="Oval" fill="#00DEFF" cx="134.608701" cy="242.574626" rx="129.558728" ry="129.291045"></ellipse>
            <ellipse id="Oval" fill="#00DDFF" cx="134.608701" cy="247.902985" rx="129.558728" ry="129.291045"></ellipse>
            <ellipse id="Oval" fill="#00DCFF" cx="134.608701" cy="253.388059" rx="129.715769" ry="129.447761"></ellipse>
            <ellipse id="Oval" fill="#00DBFF" cx="134.608701" cy="259.02985" rx="129.715769" ry="129.447761"></ellipse>
            <ellipse id="Oval" fill="#00DAFF" cx="134.608701" cy="264.671641" rx="129.715769" ry="129.447761"></ellipse>
            <ellipse id="Oval" fill="#00D9FF" cx="134.608701" cy="270.470149" rx="129.715769" ry="129.447761"></ellipse>
            <ellipse id="Oval" fill="#00D8FF" cx="134.608701" cy="276.11194" rx="129.87281" ry="129.604478"></ellipse>
            <ellipse id="Oval" fill="#00D7FF" cx="134.608701" cy="282.067164" rx="129.87281" ry="129.604478"></ellipse>
            <ellipse id="Oval" fill="#00D6FF" cx="134.608701" cy="287.865672" rx="129.87281" ry="129.604478"></ellipse>
            <ellipse id="Oval" fill="#00D5FF" cx="134.608701" cy="293.820895" rx="129.87281" ry="129.604478"></ellipse>
            <ellipse id="Oval" fill="#00D4FF" cx="134.608701" cy="299.77612" rx="130.029851" ry="129.761194"></ellipse>
            <ellipse id="Oval" fill="#00D3FF" cx="134.608701" cy="305.731343" rx="130.029851" ry="129.761194"></ellipse>
            <ellipse id="Oval" fill="#00D2FF" cx="134.608701" cy="311.843284" rx="130.029851" ry="129.761194"></ellipse>
            <ellipse id="Oval" fill="#00D1FF" cx="134.608701" cy="317.798507" rx="130.186892" ry="129.91791"></ellipse>
            <ellipse id="Oval" fill="#00D0FF" cx="134.608701" cy="323.910447" rx="130.186892" ry="129.91791"></ellipse>
            <ellipse id="Oval" fill="#00CFFF" cx="134.608701" cy="330.022388" rx="130.186892" ry="129.91791"></ellipse>
            <ellipse id="Oval" fill="#00CEFF" cx="134.608701" cy="336.134328" rx="130.186892" ry="129.91791"></ellipse>
            <ellipse id="Oval" fill="#00CDFF" cx="134.608701" cy="342.246268" rx="130.343932" ry="130.074627"></ellipse>
            <ellipse id="Oval" fill="#00CCFF" cx="134.608701" cy="348.358209" rx="130.343932" ry="130.074627"></ellipse>
            <ellipse id="Oval" fill="#00CBFF" cx="134.608701" cy="354.470149" rx="130.343932" ry="130.074627"></ellipse>
            <ellipse id="Oval" fill="#00CAFF" cx="134.608701" cy="360.582089" rx="130.343932" ry="130.074627"></ellipse>
            <ellipse id="Oval" fill="#00C9FF" cx="134.608701" cy="366.694029" rx="130.500973" ry="130.231343"></ellipse>
            <ellipse id="Oval" fill="#00C8FF" cx="134.608701" cy="372.649254" rx="130.500973" ry="130.231343"></ellipse>
            <ellipse id="Oval" fill="#00C7FF" cx="134.608701" cy="378.761194" rx="130.500973" ry="130.231343"></ellipse>
            <ellipse id="Oval" fill="#00C6FF" cx="134.608701" cy="384.716418" rx="130.500973" ry="130.231343"></ellipse>
            <ellipse id="Oval" fill="#00C5FF" cx="134.608701" cy="390.828358" rx="130.658014" ry="130.38806"></ellipse>
            <ellipse id="Oval" fill="#00C4FF" cx="134.608701" cy="396.783582" rx="130.658014" ry="130.38806"></ellipse>
            <ellipse id="Oval" fill="#00C3FF" cx="134.608701" cy="402.58209" rx="130.658014" ry="130.38806"></ellipse>
            <ellipse id="Oval" fill="#00C2FF" cx="134.608701" cy="408.537313" rx="130.658014" ry="130.38806"></ellipse>
            <ellipse id="Oval" fill="#00C1FF" cx="134.608701" cy="414.335821" rx="130.815055" ry="130.544776"></ellipse>
            <ellipse id="Oval" fill="#00C0FF" cx="134.608701" cy="420.134329" rx="130.815055" ry="130.544776"></ellipse>
            <ellipse id="Oval" fill="#00BFFF" cx="134.608701" cy="425.77612" rx="130.815055" ry="130.544776"></ellipse>
            <ellipse id="Oval" fill="#00BEFF" cx="134.608701" cy="431.417911" rx="130.972096" ry="130.701493"></ellipse>
            <ellipse id="Oval" fill="#00BDFF" cx="134.608701" cy="437.059702" rx="130.972096" ry="130.701493"></ellipse>
            <ellipse id="Oval" fill="#00BCFF" cx="134.608701" cy="442.544776" rx="130.972096" ry="130.701493"></ellipse>
            <ellipse id="Oval" fill="#00BBFF" cx="134.608701" cy="447.873135" rx="130.972096" ry="130.701493"></ellipse>
            <ellipse id="Oval" fill="#00BAFF" cx="134.608701" cy="453.201492" rx="131.129137" ry="130.858209"></ellipse>
            <ellipse id="Oval" fill="#00B9FF" cx="134.608701" cy="458.529851" rx="131.129137" ry="130.858209"></ellipse>
            <ellipse id="Oval" fill="#00B8FF" cx="134.608701" cy="463.544776" rx="131.129137" ry="130.858209"></ellipse>
            <ellipse id="Oval" fill="#00B7FF" cx="134.608701" cy="468.716417" rx="131.129137" ry="130.858209"></ellipse>
            <ellipse id="Oval" fill="#00B6FF" cx="134.608701" cy="474.514925" rx="131.286178" ry="131.014925"></ellipse>
            <ellipse id="Oval" fill="#00B5FF" cx="134.765731" cy="480.470149" rx="131.286178" ry="131.014925"></ellipse>
            <ellipse id="Oval" fill="#00B4FF" cx="134.922775" cy="486.425374" rx="131.286178" ry="131.014925"></ellipse>
            <ellipse id="Oval" fill="#00B3FF" cx="135.236861" cy="492.380597" rx="131.286178" ry="131.014925"></ellipse>
            <ellipse id="Oval" fill="#00B2FF" cx="135.550934" cy="498.179105" rx="131.443219" ry="131.171642"></ellipse>
            <ellipse id="Oval" fill="#00B1FF" cx="136.022064" cy="503.820896" rx="131.443219" ry="131.171642"></ellipse>
            <ellipse id="Oval" fill="#00B0FF" cx="136.493181" cy="509.619403" rx="131.443219" ry="131.171642"></ellipse>
            <ellipse id="Oval" fill="#00AFFF" cx="137.121354" cy="515.261194" rx="131.443219" ry="131.171642"></ellipse>
            <ellipse id="Oval" fill="#00AEFF" cx="137.749513" cy="520.746269" rx="131.60026" ry="131.328358"></ellipse>
            <ellipse id="Oval" fill="#00ADFF" cx="138.534716" cy="526.231343" rx="131.60026" ry="131.328358"></ellipse>
            <ellipse id="Oval" fill="#00ACFF" cx="139.319919" cy="531.559702" rx="131.60026" ry="131.328358"></ellipse>
            <ellipse id="Oval" fill="#00ABFF" cx="140.105122" cy="537.044776" rx="131.7573" ry="131.485075"></ellipse>
            <ellipse id="Oval" fill="#00AAFF" cx="141.047369" cy="542.216418" rx="131.7573" ry="131.485075"></ellipse>
            <ellipse id="Oval" fill="#00A9FF" cx="142.146658" cy="547.544777" rx="131.7573" ry="131.485075"></ellipse>
            <ellipse id="Oval" fill="#00A8FF" cx="143.245948" cy="552.559701" rx="131.7573" ry="131.485075"></ellipse>
            <ellipse id="Oval" fill="#00A7FF" cx="144.345224" cy="557.731343" rx="131.914341" ry="131.641791"></ellipse>
            <ellipse id="Oval" fill="#00A6FF" cx="145.601557" cy="562.746268" rx="131.914341" ry="131.641791"></ellipse>
            <ellipse id="Oval" fill="#00A5FF" cx="146.85789" cy="567.604478" rx="131.914341" ry="131.641791"></ellipse>
            <ellipse id="Oval" fill="#00A4FF" cx="148.271252" cy="572.619403" rx="131.914341" ry="131.641791"></ellipse>
            <ellipse id="Oval" fill="#00A3FF" cx="149.684615" cy="577.320895" rx="132.071382" ry="131.798508"></ellipse>
            <ellipse id="Oval" fill="#00A2FF" cx="151.255034" cy="582.179104" rx="132.071382" ry="131.798508"></ellipse>
            <ellipse id="Oval" fill="#00A1FF" cx="152.82544" cy="586.880597" rx="132.071382" ry="131.798508"></ellipse>
            <ellipse id="Oval" fill="#00A0FF" cx="154.395846" cy="591.425373" rx="132.071382" ry="131.798508"></ellipse>
            <ellipse id="Oval" fill="#009FFF" cx="156.123296" cy="595.97015" rx="132.228423" ry="131.955224"></ellipse>
            <ellipse id="Oval" fill="#009EFF" cx="157.850745" cy="600.514925" rx="132.228423" ry="131.955224"></ellipse>
            <ellipse id="Oval" fill="#009DFF" cx="159.735237" cy="604.902986" rx="132.228423" ry="131.955224"></ellipse>
            <ellipse id="Oval" fill="#009CFF" cx="161.61973" cy="609.291044" rx="132.228423" ry="131.955224"></ellipse>
            <ellipse id="Oval" fill="#009BFF" cx="163.504222" cy="613.522388" rx="132.385464" ry="132.11194"></ellipse>
            <ellipse id="Oval" fill="#009AFF" cx="165.545745" cy="617.753731" rx="132.385464" ry="132.11194"></ellipse>
            <ellipse id="Oval" fill="#0099FF" cx="167.587281" cy="621.985074" rx="132.385464" ry="132.11194"></ellipse>
            <ellipse id="Oval" fill="#0098FF" cx="169.78586" cy="626.059702" rx="132.542505" ry="132.268657"></ellipse>
            <ellipse id="Oval" fill="#0097FF" cx="171.984425" cy="630.134328" rx="132.542505" ry="132.268657"></ellipse>
            <ellipse id="Oval" fill="#0096FF" cx="174.183004" cy="634.052239" rx="132.542505" ry="132.268657"></ellipse>
            <ellipse id="Oval" fill="#0095FF" cx="176.538613" cy="637.970149" rx="132.542505" ry="132.268657"></ellipse>
            <ellipse id="Oval" fill="#0094FF" cx="178.894222" cy="641.731343" rx="132.699546" ry="132.425373"></ellipse>
            <ellipse id="Oval" fill="#0093FF" cx="181.249831" cy="645.492537" rx="132.699546" ry="132.425373"></ellipse>
            <ellipse id="Oval" fill="#0092FF" cx="183.762497" cy="649.253731" rx="132.699546" ry="132.425373"></ellipse>
            <ellipse id="Oval" fill="#0091FF" cx="186.275149" cy="652.858209" rx="132.699546" ry="132.425373"></ellipse>
            <ellipse id="Oval" fill="#0090FF" cx="188.944845" cy="656.462687" rx="132.856587" ry="132.58209"></ellipse>
            <ellipse id="Oval" fill="#008FFF" cx="191.457497" cy="659.910448" rx="132.856587" ry="132.58209"></ellipse>
            <ellipse id="Oval" fill="#008EFF" cx="194.127193" cy="663.358209" rx="132.856587" ry="132.58209"></ellipse>
            <ellipse id="Oval" fill="#008DFF" cx="196.953931" cy="666.80597" rx="132.856587" ry="132.58209"></ellipse>
            <ellipse id="Oval" fill="#008CFF" cx="199.780657" cy="670.097015" rx="133.013627" ry="132.738806"></ellipse>
            <ellipse id="Oval" fill="#008BFF" cx="202.607396" cy="673.38806" rx="133.013627" ry="132.738806"></ellipse>
            <ellipse id="Oval" fill="#008AFF" cx="205.434134" cy="676.522388" rx="133.013627" ry="132.738806"></ellipse>
            <ellipse id="Oval" fill="#0089FF" cx="208.417916" cy="679.656717" rx="133.013627" ry="132.738806"></ellipse>
            <ellipse id="Oval" fill="#0088FF" cx="211.401685" cy="682.634328" rx="133.170668" ry="132.895522"></ellipse>
            <ellipse id="Oval" fill="#0087FF" cx="214.385467" cy="685.61194" rx="133.170668" ry="132.895522"></ellipse>
            <ellipse id="Oval" fill="#0086FF" cx="217.369236" cy="688.589553" rx="133.170668" ry="132.895522"></ellipse>
            <ellipse id="Oval" fill="#0085FF" cx="220.510061" cy="691.410448" rx="133.327709" ry="133.052239"></ellipse>
            <ellipse id="Oval" fill="#0084FF" cx="223.650873" cy="694.231344" rx="133.327709" ry="133.052239"></ellipse>
            <ellipse id="Oval" fill="#0083FF" cx="226.948728" cy="696.895522" rx="133.327709" ry="133.052239"></ellipse>
            <ellipse id="Oval" fill="#0082FF" cx="230.089554" cy="699.559701" rx="133.327709" ry="133.052239"></ellipse>
            <ellipse id="Oval" fill="#0081FF" cx="233.387409" cy="702.223881" rx="133.48475" ry="133.208955"></ellipse>
            <ellipse id="Oval" fill="#0080FF" cx="236.685264" cy="704.731343" rx="133.48475" ry="133.208955"></ellipse>
            <ellipse id="Oval" fill="#007FFF" cx="240.140163" cy="707.238806" rx="133.48475" ry="133.208955"></ellipse>
            <ellipse id="Oval" fill="#007EFF" cx="243.438031" cy="709.589552" rx="133.48475" ry="133.208955"></ellipse>
            <ellipse id="Oval" fill="#007DFF" cx="246.89293" cy="711.940299" rx="133.641791" ry="133.365672"></ellipse>
            <ellipse id="Oval" fill="#007CFF" cx="250.347828" cy="714.291045" rx="133.641791" ry="133.365672"></ellipse>
            <ellipse id="Oval" fill="#007BFF" cx="253.95977" cy="716.485074" rx="133.641791" ry="133.365672"></ellipse>
            <ellipse id="Oval" fill="#007AFF" cx="257.414669" cy="718.522388" rx="133.641791" ry="133.365672"></ellipse>
            <ellipse id="Oval" fill="#0079FF" cx="261.02661" cy="720.716417" rx="133.798832" ry="133.522388"></ellipse>
            <ellipse id="Oval" fill="#0078FF" cx="264.638552" cy="722.753731" rx="133.798832" ry="133.522388"></ellipse>
            <ellipse id="Oval" fill="#0077FF" cx="268.250481" cy="724.634328" rx="133.798832" ry="133.522388"></ellipse>
            <ellipse id="Oval" fill="#0076FF" cx="272.019466" cy="726.514925" rx="133.798832" ry="133.522388"></ellipse>
            <ellipse id="Oval" fill="#0075FF" cx="275.788451" cy="728.395522" rx="133.955873" ry="133.679105"></ellipse>
            <ellipse id="Oval" fill="#0074FF" cx="279.400393" cy="730.119403" rx="133.955873" ry="133.679105"></ellipse>
            <ellipse id="Oval" fill="#0073FF" cx="283.326407" cy="731.843284" rx="133.955873" ry="133.679105"></ellipse>
            <ellipse id="Oval" fill="#0072FF" cx="287.095393" cy="733.410447" rx="134.112914" ry="133.835821"></ellipse>
            <ellipse id="Oval" fill="#0071FF" cx="290.864378" cy="734.977612" rx="134.112914" ry="133.835821"></ellipse>
            <ellipse id="Oval" fill="#0070FF" cx="294.790393" cy="736.544777" rx="134.112914" ry="133.835821"></ellipse>
            <ellipse id="Oval" fill="#006FFF" cx="298.716421" cy="737.955224" rx="134.112914" ry="133.835821"></ellipse>
            <ellipse id="Oval" fill="#006EFF" cx="302.642436" cy="739.365672" rx="134.269955" ry="133.992537"></ellipse>
            <ellipse id="Oval" fill="#006DFF" cx="306.568464" cy="740.619403" rx="134.269955" ry="133.992537"></ellipse>
            <ellipse id="Oval" fill="#006CFF" cx="310.494479" cy="741.873134" rx="134.269955" ry="133.992537"></ellipse>
            <ellipse id="Oval" fill="#006BFF" cx="314.577551" cy="742.970149" rx="134.269955" ry="133.992537"></ellipse>
            <ellipse id="Oval" fill="#006AFF" cx="318.503566" cy="744.067165" rx="134.426996" ry="134.149254"></ellipse>
            <ellipse id="Oval" fill="#0069FF" cx="322.586637" cy="745.164179" rx="134.426996" ry="134.149254"></ellipse>
            <ellipse id="Oval" fill="#0068FF" cx="326.669696" cy="746.104477" rx="134.426996" ry="134.149254"></ellipse>
            <ellipse id="Oval" fill="#0067FF" cx="330.752754" cy="747.044776" rx="134.426996" ry="134.149254"></ellipse>
            <ellipse id="Oval" fill="#0066FF" cx="334.835825" cy="747.985074" rx="134.584036" ry="134.30597"></ellipse>
            <ellipse id="Oval" fill="#0065FF" cx="339.075927" cy="748.768657" rx="134.584036" ry="134.30597"></ellipse>
            <ellipse id="Oval" fill="#0064FF" cx="343.158985" cy="749.552239" rx="134.584036" ry="134.30597"></ellipse>
            <ellipse id="Oval" fill="#0063FF" cx="347.399087" cy="750.179105" rx="134.584036" ry="134.30597"></ellipse>
            <ellipse id="Oval" fill="#0062FF" cx="351.482158" cy="750.80597" rx="134.741077" ry="134.462687"></ellipse>
            <ellipse id="Oval" fill="#0061FF" cx="355.72226" cy="751.276119" rx="134.741077" ry="134.462687"></ellipse>
            <ellipse id="Oval" fill="#0060FF" cx="359.962361" cy="751.746268" rx="134.741077" ry="134.462687"></ellipse>
            <ellipse id="Oval" fill="#005FFF" cx="364.202463" cy="752.216417" rx="134.898119" ry="134.619403"></ellipse>
            <ellipse id="Oval" fill="#005EFF" cx="368.442564" cy="752.529851" rx="134.898119" ry="134.619403"></ellipse>
            <ellipse id="Oval" fill="#005DFF" cx="372.682679" cy="752.843284" rx="134.898119" ry="134.619403"></ellipse>
            <ellipse id="Oval" fill="#005CFF" cx="376.922781" cy="753" rx="134.898119" ry="134.619403"></ellipse>
            <ellipse id="Oval" fill="#005BFF" cx="381.319925" cy="753.156716" rx="135.055159" ry="134.776119"></ellipse>
            <ellipse id="Oval" fill="#005AFF" cx="385.560027" cy="753.313433" rx="135.055159" ry="134.776119"></ellipse>
            <ellipse id="Oval" fill="#0059FF" cx="389.957172" cy="753.313433" rx="135.055159" ry="134.776119"></ellipse>
            <ellipse id="Oval" fill="#0159FF" cx="396.709925" cy="753.313433" rx="135.055159" ry="134.776119"></ellipse>
            <ellipse id="Oval" fill="#0259FF" cx="403.462693" cy="753" rx="134.898119" ry="134.619403"></ellipse>
            <ellipse id="Oval" fill="#0359FF" cx="410.215446" cy="752.529851" rx="134.898119" ry="134.619403"></ellipse>
            <ellipse id="Oval" fill="#0459FF" cx="416.9682" cy="752.059702" rx="134.741077" ry="134.462687"></ellipse>
            <ellipse id="Oval" fill="#0559FF" cx="423.720954" cy="751.276119" rx="134.741077" ry="134.462687"></ellipse>
            <ellipse id="Oval" fill="#0659FF" cx="430.316678" cy="750.33582" rx="134.741077" ry="134.462687"></ellipse>
            <ellipse id="Oval" fill="#0759FF" cx="436.912388" cy="749.395522" rx="134.584036" ry="134.30597"></ellipse>
            <ellipse id="Oval" fill="#0859FF" cx="443.351069" cy="748.141791" rx="134.584036" ry="134.30597"></ellipse>
            <ellipse id="Oval" fill="#0959FF" cx="449.946793" cy="746.731343" rx="134.426996" ry="134.149254"></ellipse>
            <ellipse id="Oval" fill="#0A59FF" cx="456.38546" cy="745.320896" rx="134.426996" ry="134.149254"></ellipse>
            <ellipse id="Oval" fill="#0B59FF" cx="462.82414" cy="743.597015" rx="134.426996" ry="134.149254"></ellipse>
            <ellipse id="Oval" fill="#0C59FF" cx="469.105778" cy="741.716418" rx="134.269955" ry="133.992537"></ellipse>
            <ellipse id="Oval" fill="#0D59FF" cx="475.387415" cy="739.679104" rx="134.269955" ry="133.992537"></ellipse>
            <ellipse id="Oval" fill="#0E59FF" cx="481.512009" cy="737.485075" rx="134.112914" ry="133.835821"></ellipse>
            <ellipse id="Oval" fill="#0F59FF" cx="487.793646" cy="735.134329" rx="134.112914" ry="133.835821"></ellipse>
            <ellipse id="Oval" fill="#1059FF" cx="493.761197" cy="732.783583" rx="134.112914" ry="133.835821"></ellipse>
            <ellipse id="Oval" fill="#1159FF" cx="499.728748" cy="730.119403" rx="133.955873" ry="133.679105"></ellipse>
            <ellipse id="Oval" fill="#1258FF" cx="505.696299" cy="727.298507" rx="133.955873" ry="133.679105"></ellipse>
            <ellipse id="Oval" fill="#1358FF" cx="511.506819" cy="724.320896" rx="133.798832" ry="133.522388"></ellipse>
            <ellipse id="Oval" fill="#1458FF" cx="517.317327" cy="721.186567" rx="133.798832" ry="133.522388"></ellipse>
            <ellipse id="Oval" fill="#1558FF" cx="522.970804" cy="717.895522" rx="133.798832" ry="133.522388"></ellipse>
            <ellipse id="Oval" fill="#1658FF" cx="528.624269" cy="714.447762" rx="133.641791" ry="133.365672"></ellipse>
            <ellipse id="Oval" fill="#1758FF" cx="534.120703" cy="711" rx="133.641791" ry="133.365672"></ellipse>
            <ellipse id="Oval" fill="#1858FF" cx="539.460094" cy="707.238806" rx="133.48475" ry="133.208955"></ellipse>
            <ellipse id="Oval" fill="#1958FF" cx="544.799485" cy="703.320895" rx="133.48475" ry="133.208955"></ellipse>
            <ellipse id="Oval" fill="#1A58FF" cx="549.981833" cy="699.246269" rx="133.327709" ry="133.052239"></ellipse>
            <ellipse id="Oval" fill="#1B58FF" cx="555.007137" cy="695.014925" rx="133.327709" ry="133.052239"></ellipse>
            <ellipse id="Oval" fill="#1C58FF" cx="560.032442" cy="690.626865" rx="133.327709" ry="133.052239"></ellipse>
            <ellipse id="Oval" fill="#1D58FF" cx="564.900716" cy="686.238806" rx="133.170668" ry="132.895522"></ellipse>
            <ellipse id="Oval" fill="#1E58FF" cx="569.611934" cy="681.537314" rx="133.170668" ry="132.895522"></ellipse>
            <ellipse id="Oval" fill="#1F58FF" cx="574.323166" cy="676.679104" rx="133.013627" ry="132.738806"></ellipse>
            <ellipse id="Oval" fill="#2058FF" cx="578.877354" cy="671.66418" rx="133.013627" ry="132.738806"></ellipse>
            <ellipse id="Oval" fill="#2158FF" cx="583.274499" cy="666.649253" rx="133.013627" ry="132.738806"></ellipse>
            <ellipse id="Oval" fill="#2258FF" cx="587.5146" cy="661.320896" rx="132.856587" ry="132.58209"></ellipse>
            <ellipse id="Oval" fill="#2358FF" cx="591.597658" cy="655.83582" rx="132.856587" ry="132.58209"></ellipse>
            <ellipse id="Oval" fill="#2458FF" cx="595.68073" cy="650.350746" rx="132.699546" ry="132.425373"></ellipse>
            <ellipse id="Oval" fill="#2558FF" cx="599.606745" cy="644.552238" rx="132.699546" ry="132.425373"></ellipse>
            <ellipse id="Oval" fill="#2658FF" cx="603.37573" cy="638.753732" rx="132.699546" ry="132.425373"></ellipse>
            <ellipse id="Oval" fill="#2758FF" cx="606.987672" cy="632.641791" rx="132.542505" ry="132.268657"></ellipse>
            <ellipse id="Oval" fill="#2858FF" cx="610.44257" cy="626.529851" rx="132.542505" ry="132.268657"></ellipse>
            <ellipse id="Oval" fill="#2958FF" cx="613.740425" cy="620.104477" rx="132.385464" ry="132.11194"></ellipse>
            <ellipse id="Oval" fill="#2A58FF" cx="616.881251" cy="613.679104" rx="132.385464" ry="132.11194"></ellipse>
            <ellipse id="Oval" fill="#2B58FF" cx="619.865019" cy="607.097015" rx="132.385464" ry="132.11194"></ellipse>
            <ellipse id="Oval" fill="#2C58FF" cx="622.848801" cy="600.201493" rx="132.228423" ry="131.955224"></ellipse>
            <ellipse id="Oval" fill="#2D58FF" cx="625.518497" cy="593.30597" rx="132.228423" ry="131.955224"></ellipse>
            <ellipse id="Oval" fill="#2E58FF" cx="628.031149" cy="586.253731" rx="132.071382" ry="131.798508"></ellipse>
            <ellipse id="Oval" fill="#2F58FF" cx="630.386758" cy="579.044777" rx="132.071382" ry="131.798508"></ellipse>
            <ellipse id="Oval" fill="#3058FF" cx="632.742381" cy="571.679104" rx="132.071382" ry="131.798508"></ellipse>
            <ellipse id="Oval" fill="#3158FF" cx="634.783903" cy="564.156716" rx="131.914341" ry="131.641791"></ellipse>
            <ellipse id="Oval" fill="#3258FF" cx="636.511352" cy="556.477612" rx="131.914341" ry="131.641791"></ellipse>
            <ellipse id="Oval" fill="#3358FF" cx="638.238801" cy="548.641791" rx="131.7573" ry="131.485075"></ellipse>
            <ellipse id="Oval" fill="#3458FF" cx="639.809221" cy="540.649253" rx="131.7573" ry="131.485075"></ellipse>
            <ellipse id="Oval" fill="#3558FF" cx="641.06554" cy="532.656716" rx="131.60026" ry="131.328358"></ellipse>
            <ellipse id="Oval" fill="#3557FF" cx="642.321873" cy="524.350746" rx="131.60026" ry="131.328358"></ellipse>
            <ellipse id="Oval" fill="#3657FF" cx="643.264119" cy="515.88806" rx="131.60026" ry="131.328358"></ellipse>
            <ellipse id="Oval" fill="#3757FF" cx="644.049322" cy="507.425373" rx="131.443219" ry="131.171642"></ellipse>
            <ellipse id="Oval" fill="#3857FF" cx="644.520439" cy="498.649254" rx="131.443219" ry="131.171642"></ellipse>
            <ellipse id="Oval" fill="#3957FF" cx="644.991569" cy="489.873134" rx="131.286178" ry="131.014925"></ellipse>
            <ellipse id="Oval" fill="#3A57FF" cx="645.148599" cy="480.940298" rx="131.286178" ry="131.014925"></ellipse>
            <ellipse id="Oval" fill="#3B57FF" cx="645.148599" cy="475.455224" rx="131.286178" ry="131.014925"></ellipse>
            <ellipse id="Oval" fill="#3C57FF" cx="645.148599" cy="471.69403" rx="131.129137" ry="130.858209"></ellipse>
            <ellipse id="Oval" fill="#3D57FF" cx="645.148599" cy="467.30597" rx="131.129137" ry="130.858209"></ellipse>
            <ellipse id="Oval" fill="#3E57FF" cx="645.148599" cy="462.447762" rx="130.972096" ry="130.701493"></ellipse>
            <ellipse id="Oval" fill="#3F57FF" cx="645.148599" cy="456.962686" rx="130.972096" ry="130.701493"></ellipse>
            <ellipse id="Oval" fill="#4057FF" cx="645.148599" cy="451.007463" rx="130.972096" ry="130.701493"></ellipse>
            <ellipse id="Oval" fill="#4157FF" cx="645.148599" cy="444.58209" rx="130.815055" ry="130.544776"></ellipse>
            <ellipse id="Oval" fill="#4257FF" cx="645.148599" cy="437.686567" rx="130.815055" ry="130.544776"></ellipse>
            <ellipse id="Oval" fill="#4357FF" cx="645.148599" cy="430.477612" rx="130.658014" ry="130.38806"></ellipse>
            <ellipse id="Oval" fill="#4457FF" cx="645.148599" cy="422.798507" rx="130.658014" ry="130.38806"></ellipse>
            <ellipse id="Oval" fill="#4557FF" cx="645.148599" cy="414.80597" rx="130.658014" ry="130.38806"></ellipse>
            <ellipse id="Oval" fill="#4657FF" cx="645.148599" cy="406.5" rx="130.500973" ry="130.231343"></ellipse>
            <ellipse id="Oval" fill="#4757FF" cx="645.148599" cy="397.880597" rx="130.500973" ry="130.231343"></ellipse>
            <ellipse id="Oval" fill="#4857FF" cx="645.148599" cy="388.947761" rx="130.343932" ry="130.074627"></ellipse>
            <ellipse id="Oval" fill="#4957FF" cx="645.148599" cy="379.858209" rx="130.343932" ry="130.074627"></ellipse>
            <ellipse id="Oval" fill="#4A57FF" cx="645.148599" cy="370.455223" rx="130.186892" ry="129.91791"></ellipse>
            <ellipse id="Oval" fill="#4B57FF" cx="645.148599" cy="361.052238" rx="130.186892" ry="129.91791"></ellipse>
            <ellipse id="Oval" fill="#4C57FF" cx="645.148599" cy="351.335821" rx="130.186892" ry="129.91791"></ellipse>
            <ellipse id="Oval" fill="#4D57FF" cx="645.148599" cy="341.619403" rx="130.029851" ry="129.761194"></ellipse>
            <ellipse id="Oval" fill="#4E57FF" cx="645.148599" cy="331.746269" rx="130.029851" ry="129.761194"></ellipse>
            <ellipse id="Oval" fill="#4F57FF" cx="645.148599" cy="321.873135" rx="129.87281" ry="129.604478"></ellipse>
            <ellipse id="Oval" fill="#5057FF" cx="645.148599" cy="311.843284" rx="129.87281" ry="129.604478"></ellipse>
            <ellipse id="Oval" fill="#5157FF" cx="645.148599" cy="301.970149" rx="129.87281" ry="129.604478"></ellipse>
            <ellipse id="Oval" fill="#5257FF" cx="645.148599" cy="291.940298" rx="129.715769" ry="129.447761"></ellipse>
            <ellipse id="Oval" fill="#5357FF" cx="645.148599" cy="282.067164" rx="129.715769" ry="129.447761"></ellipse>
            <ellipse id="Oval" fill="#5457FF" cx="645.148599" cy="272.350746" rx="129.558728" ry="129.291045"></ellipse>
            <ellipse id="Oval" fill="#5557FF" cx="645.148599" cy="262.634329" rx="129.558728" ry="129.291045"></ellipse>
            <ellipse id="Oval" fill="#5657FF" cx="645.148599" cy="253.231344" rx="129.558728" ry="129.291045"></ellipse>
            <ellipse id="Oval" fill="#5757FF" cx="645.148599" cy="243.828359" rx="129.401687" ry="129.134328"></ellipse>
            <ellipse id="Oval" fill="#5857FF" cx="645.148599" cy="234.738806" rx="129.401687" ry="129.134328"></ellipse>
            <ellipse id="Oval" fill="#5956FF" cx="645.148599" cy="225.80597" rx="129.244646" ry="128.977612"></ellipse>
            <ellipse id="Oval" fill="#5A56FF" cx="645.148599" cy="217.186567" rx="129.244646" ry="128.977612"></ellipse>
            <ellipse id="Oval" fill="#5B56FF" cx="645.148599" cy="208.880597" rx="129.244646" ry="128.977612"></ellipse>
            <ellipse id="Oval" fill="#5C56FF" cx="645.148599" cy="200.88806" rx="129.087605" ry="128.820896"></ellipse>
            <ellipse id="Oval" fill="#5D56FF" cx="645.148599" cy="193.208955" rx="129.087605" ry="128.820896"></ellipse>
            <ellipse id="Oval" fill="#5E56FF" cx="645.148599" cy="186" rx="128.930565" ry="128.664179"></ellipse>
            <ellipse id="Oval" fill="#5F56FF" cx="645.148599" cy="179.104477" rx="128.930565" ry="128.664179"></ellipse>
            <ellipse id="Oval" fill="#6056FF" cx="645.148599" cy="172.679104" rx="128.773524" ry="128.507463"></ellipse>
            <ellipse id="Oval" fill="#6156FF" cx="645.148599" cy="166.723881" rx="128.773524" ry="128.507463"></ellipse>
            <ellipse id="Oval" fill="#6256FF" cx="645.148599" cy="161.238806" rx="128.773524" ry="128.507463"></ellipse>
            <ellipse id="Oval" fill="#6356FF" cx="645.148599" cy="156.380597" rx="128.616483" ry="128.350746"></ellipse>
            <ellipse id="Oval" fill="#6456FF" cx="645.148599" cy="151.992537" rx="128.616483" ry="128.350746"></ellipse>
            <ellipse id="Oval" fill="#6556FF" cx="645.148599" cy="148.231343" rx="128.459442" ry="128.19403"></ellipse>
            <ellipse id="Oval" fill="#6656FF" cx="645.148599" cy="145.097015" rx="128.459442" ry="128.19403"></ellipse>
            <ellipse id="Oval" fill="#6756FF" cx="645.148599" cy="142.589552" rx="128.459442" ry="128.19403"></ellipse>
            <ellipse id="Oval" fill="#6856FF" cx="645.148599" cy="140.865672" rx="128.302401" ry="128.037313"></ellipse>
            <ellipse id="Oval" fill="#6956FF" cx="645.148599" cy="139.61194" rx="128.302401" ry="128.037313"></ellipse>
            <ellipse id="Oval" fill="#6A56FF" cx="645.148599" cy="139.298507" rx="128.14536" ry="127.880597"></ellipse>
        </g>
    </g>
</svg>